<?xml version="1.0" encoding="UTF-8"?>
<svg version="1.1" xmlns="http://www.w3.org/2000/svg" width="95" height="80">
    <path
        d="M0 0 C9.2073919 5.60037239 15.3195669 12.6827889 18.46484375 22.98828125 C21.07661422 33.91568872 19.9037786 44.4019867 14.109375 54.23046875 C8.25113545 62.19338475 0.39552306 68.36292112 -9.34765625 70.61328125 C-20.95793181 72.09159906 -31.19867517 70.73216999 -40.90625 63.78125 C-49.91163184 56.28415871 -54.16431161 47.73369362 -55.66796875 36.14453125 C-56.13324131 26.59093464 -53.16263349 16.64148637 -46.9609375 9.31640625 C-46.42855469 8.754375 -45.89617188 8.19234375 -45.34765625 7.61328125 C-44.84621094 7.071875 -44.34476563 6.53046875 -43.828125 5.97265625 C-32.22282916 -5.20908865 -14.20901218 -6.91934064 0 0 Z "
        fill="#fcb900" transform="translate(65.34765625,6.38671875)" />
    <path
        d="M0 0 C0.33 0.66 0.66 1.32 1 2 C3.31 2 5.62 2 8 2 C8.33 1.34 8.66 0.68 9 0 C9 0.66 9 1.32 9 2 C9.9590625 2.2165625 9.9590625 2.2165625 10.9375 2.4375 C13 3 13 3 14 4 C14.04063832 5.66617115 14.042721 7.33388095 14 9 C14.66 9 15.32 9 16 9 C16.33 7.68 16.66 6.36 17 5 C17.33 6.98 17.66 8.96 18 11 C16.68 11.33 15.36 11.66 14 12 C14.350625 12.94875 14.70125 13.8975 15.0625 14.875 C16 18 16 18 15 20 C15.66 20 16.32 20 17 20 C17 19.34 17 18.68 17 18 C17.99 18.33 18.98 18.66 20 19 C19.34 19 18.68 19 18 19 C17.67 19.99 17.34 20.98 17 22 C16.01 22 15.02 22 14 22 C14 21.34 14 20.68 14 20 C12.68 20 11.36 20 10 20 C10 20.99 10 21.98 10 23 C14.29 23.33 18.58 23.66 23 24 C22.01 24.33 21.02 24.66 20 25 C20 27.31 20 29.62 20 32 C20.66 32 21.32 32 22 32 C22.495 34.97 22.495 34.97 23 38 C10.79 38 -1.42 38 -14 38 C-13.505 35.03 -13.505 35.03 -13 32 C-12.34 32 -11.68 32 -11 32 C-11 29.69 -11 27.38 -11 25 C-11.99 24.67 -12.98 24.34 -14 24 C-7.565 23.505 -7.565 23.505 -1 23 C-1 22.01 -1 21.02 -1 20 C-2.32 20 -3.64 20 -5 20 C-5 20.99 -5 21.98 -5 23 C-6.65 22.67 -8.3 22.34 -10 22 C-10.33 20.68 -10.66 19.36 -11 18 C-10.01 18 -9.02 18 -8 18 C-7.34 16.68 -6.68 15.36 -6 14 C-5.34 14 -4.68 14 -4 14 C-4 10.37 -4 6.74 -4 3 C-2.68 2.67 -1.36 2.34 0 2 C0 1.34 0 0.68 0 0 Z "
        fill="# " transform="translate(43,28)" />
    <path
        d="M0 0 C14.19 0 28.38 0 43 0 C42.67 1.65 42.34 3.3 42 5 C41.01 5.33 40.02 5.66 39 6 C39 7.98 39 9.96 39 12 C35.37 12 31.74 12 28 12 C27.67 12.66 27.34 13.32 27 14 C27 13.34 27 12.68 27 12 C26.01 12 25.02 12 24 12 C23.67 12.66 23.34 13.32 23 14 C23 13.34 23 12.68 23 12 C22.01 12 21.02 12 20 12 C19.67 12.66 19.34 13.32 19 14 C19 13.34 19 12.68 19 12 C18.01 12 17.02 12 16 12 C15.67 12.66 15.34 13.32 15 14 C15 13.34 15 12.68 15 12 C11.37 12 7.74 12 4 12 C4 10.02 4 8.04 4 6 C3.01 5.67 2.02 5.34 1 5 C0.67 3.35 0.34 1.7 0 0 Z "
        fill="# " transform="translate(26,14)" />
    <path
        d="M0 0 C0.33 0.66 0.66 1.32 1 2 C3.31 2 5.62 2 8 2 C8.33 1.34 8.66 0.68 9 0 C9 0.66 9 1.32 9 2 C10.32 2.33 11.64 2.66 13 3 C13 6.96 13 10.92 13 15 C7.39 15 1.78 15 -4 15 C-4 11.04 -4 7.08 -4 3 C-2.68 2.67 -1.36 2.34 0 2 C0 1.34 0 0.68 0 0 Z "
        fill="# " transform="translate(43,28)" />
    <path d="M0 0 C9.57 0 19.14 0 29 0 C29 2.31 29 4.62 29 7 C19.43 7 9.86 7 0 7 C0 4.69 0 2.38 0 0 Z " fill="# 8ED1E4"
        transform="translate(33,53)" />
    <path
        d="M0 0 C14.19 0 28.38 0 43 0 C42.67 1.65 42.34 3.3 42 5 C41.01 5.33 40.02 5.66 39 6 C39 7.98 39 9.96 39 12 C35.37 12 31.74 12 28 12 C27.67 12.66 27.34 13.32 27 14 C27 13.34 27 12.68 27 12 C26.01 12 25.02 12 24 12 C23.67 12.66 23.34 13.32 23 14 C23 13.34 23 12.68 23 12 C22.01 12 21.02 12 20 12 C19.67 12.66 19.34 13.32 19 14 C19 13.34 19 12.68 19 12 C18.01 12 17.02 12 16 12 C15.67 12.66 15.34 13.32 15 14 C15 13.34 15 12.68 15 12 C11.7 12 8.4 12 5 12 C5 11.67 5 11.34 5 11 C6.79090253 10.80533668 8.58276505 10.61948787 10.375 10.4375 C11.87160156 10.28087891 11.87160156 10.28087891 13.3984375 10.12109375 C16 10 16 10 18 11 C18.33 10.34 18.66 9.68 19 9 C19 9.66 19 10.32 19 11 C20.60875 10.7215625 20.60875 10.7215625 22.25 10.4375 C25.40391546 10.0695432 27.09818492 9.95534657 30 11 C30.33 10.34 30.66 9.68 31 9 C31 9.66 31 10.32 31 11 C31.66 11 32.32 11 33 11 C33.33 10.34 33.66 9.68 34 9 C34 9.66 34 10.32 34 11 C35.32 11 36.64 11 38 11 C37.938125 10.071875 37.87625 9.14375 37.8125 8.1875 C38 5 38 5 41 2 C28.13 2 15.26 2 2 2 C2.66 3.32 3.32 4.64 4 6 C3.01 5.67 2.02 5.34 1 5 C0.67 3.35 0.34 1.7 0 0 Z "
        fill="# " transform="translate(26,14)" />
    <path d="M0 0 C6.93 0 13.86 0 21 0 C20.67 1.65 20.34 3.3 20 5 C13.73 5 7.46 5 1 5 C0.67 3.35 0.34 1.7 0 0 Z "
        fill="# 47B4D3" transform="translate(37,54)" />
    <path d="M0 0 C10.89 0 21.78 0 33 0 C33 0.99 33 1.98 33 3 C22.11 3 11.22 3 0 3 C0 2.01 0 1.02 0 0 Z "
        fill="# 46B4D3" transform="translate(31,61)" />
    <path
        d="M0 0 C0.66 0 1.32 0 2 0 C2 0.66 2 1.32 2 2 C2.66 2 3.32 2 4 2 C4.33 1.34 4.66 0.68 5 0 C5 0.66 5 1.32 5 2 C13.91 2 22.82 2 32 2 C32.33 1.34 32.66 0.68 33 0 C33 0.66 33 1.32 33 2 C33.66 2 34.32 2 35 2 C35 1.34 35 0.68 35 0 C35.66 0 36.32 0 37 0 C37 1.32 37 2.64 37 4 C24.79 4 12.58 4 0 4 C0 2.68 0 1.36 0 0 Z "
        fill="# " transform="translate(29,62)" />
    <path
        d="M0 0 C4.29 0 8.58 0 13 0 C13 0.33 13 0.66 13 1 C11.35 1 9.7 1 8 1 C8 2.32 8 3.64 8 5 C9.65 5 11.3 5 13 5 C13 5.33 13 5.66 13 6 C11.02 6 9.04 6 7 6 C7.33 7.32 7.66 8.64 8 10 C9.65 10 11.3 10 13 10 C13 10.33 13 10.66 13 11 C8.71 11 4.42 11 0 11 C0.33 10.34 0.66 9.68 1 9 C1.66 9.33 2.32 9.66 3 10 C3 9.34 3 8.68 3 8 C2.34 7.67 1.68 7.34 1 7 C1.66 7 2.32 7 3 7 C3 6.34 3 5.68 3 5 C2.34 4.67 1.68 4.34 1 4 C1.66 3.34 2.32 2.68 3 2 C2.01 1.67 1.02 1.34 0 1 C0 0.67 0 0.34 0 0 Z "
        fill="# 50B9D5" transform="translate(41,31)" />
    <path d="M0 0 C3.3 0 6.6 0 10 0 C10 1.98 10 3.96 10 6 C6.37 6 2.74 6 -1 6 C-0.67 4.02 -0.34 2.04 0 0 Z "
        fill="# 80C9E6" transform="translate(54,19)" />
    <path
        d="M0 0 C0.33 0 0.66 0 1 0 C1 2.31 1 4.62 1 7 C-2.63 7 -6.26 7 -10 7 C-10.33 7.66 -10.66 8.32 -11 9 C-11 8.34 -11 7.68 -11 7 C-11.99 7 -12.98 7 -14 7 C-14.33 7.66 -14.66 8.32 -15 9 C-15 8.34 -15 7.68 -15 7 C-15.99 7 -16.98 7 -18 7 C-18.33 7.66 -18.66 8.32 -19 9 C-19 8.34 -19 7.68 -19 7 C-19.99 7 -20.98 7 -22 7 C-22.33 7.66 -22.66 8.32 -23 9 C-23 8.34 -23 7.68 -23 7 C-26.3 7 -29.6 7 -33 7 C-33 6.67 -33 6.34 -33 6 C-31.20909747 5.80533668 -29.41723495 5.61948787 -27.625 5.4375 C-26.12839844 5.28087891 -26.12839844 5.28087891 -24.6015625 5.12109375 C-22 5 -22 5 -20 6 C-19.67 5.34 -19.34 4.68 -19 4 C-19 4.66 -19 5.32 -19 6 C-17.9275 5.814375 -16.855 5.62875 -15.75 5.4375 C-12.59608454 5.0695432 -10.90181508 4.95534657 -8 6 C-7.67 5.34 -7.34 4.68 -7 4 C-7 4.66 -7 5.32 -7 6 C-6.34 6 -5.68 6 -5 6 C-4.67 5.34 -4.34 4.68 -4 4 C-4 4.66 -4 5.32 -4 6 C-2.68 6 -1.36 6 0 6 C0 4.02 0 2.04 0 0 Z "
        fill="# F8FCFD" transform="translate(64,19)" />
    <path
        d="M0 0 C0 3.63 0 7.26 0 11 C-2.97 10.505 -2.97 10.505 -6 10 C-7.10844919 6.67465243 -6.84454356 4.37817425 -6 1 C-1.125 0 -1.125 0 0 0 Z "
        fill="# 98D4E9" transform="translate(55,31)" />
    <path
        d="M0 0 C3.63 0 7.26 0 11 0 C11.33 0.99 11.66 1.98 12 3 C9.11788698 3.96070434 7.30149956 4.10581883 4.3125 4.0625 C3.10013672 4.04896484 3.10013672 4.04896484 1.86328125 4.03515625 C0.94095703 4.01775391 0.94095703 4.01775391 0 4 C-0.33 3.34 -0.66 2.68 -1 2 C-0.67 1.34 -0.34 0.68 0 0 Z "
        fill="# 7BCAE0" transform="translate(42,26)" />
    <path
        d="M0 0 C2.31 0 4.62 0 7 0 C7.33 0.99 7.66 1.98 8 3 C5.29120665 4.35439668 2.99066732 4.06501451 0 4 C0 2.68 0 1.36 0 0 Z "
        fill="# " transform="translate(44,48)" />
    <path d="M0 0 C1.98 0 3.96 0 6 0 C5.34 1.65 4.68 3.3 4 5 C2.02 5 0.04 5 -2 5 C-1.34 3.35 -0.68 1.7 0 0 Z "
        fill="# 71C5DE" transform="translate(47,20)" />
    <path d="M0 0 .31 0 4.62 0 7 0 C6.34 1.65 5.68 3.3 5 5 C3.35 5 1.7 5 0 5 C0 3.35 0 1.7 0 0 Z " fill="# 7ECED9"
        transform="translate(31,20)" />
    <path
        d="M0 0 C0.928125 0.2784375 0.928125 0.2784375 1.875 0.5625 C4.04160178 1.23686176 4.04160178 1.23686176 6 0 C5.67 1.65 5.34 3.3 5 5 C3.02 5 1.04 5 -1 5 C-0.67 3.35 -0.34 1.7 0 0 Z "
        fill="# " transform="translate(39,20)" />
    <path
        d="M0 0 C0.33 0 0.66 0 1 0 C1 1.65 1 3.3 1 5 C1.66 5 2.32 5 3 5 C3.33 3.68 3.66 2.36 4 1 C4.33 2.98 4.66 4.96 5 7 C4.360625 7.12375 3.72125 7.2475 3.0625 7.375 C2.0415625 7.684375 2.0415625 7.684375 1 8 C0.67 8.66 0.34 9.32 0 10 C0 6.7 0 3.4 0 0 Z "
        fill="# " transform="translate(56,32)" />
    <path
        d="M0 0 C1.32 0 2.64 0 4 0 C4.33 1.32 4.66 2.64 5 4 C2.69 4 0.38 4 -2 4 C-1.34 3.67 -0.68 3.34 0 3 C0 2.01 0 1.02 0 0 Z "
        fill="# " transform="translate(38,48)" />
    <path
        d="M0 0 C2.475 0.495 2.475 0.495 5 1 C5.33 2.32 5.66 3.64 6 5 C4.35 4.67 2.7 4.34 1 4 C0.67 2.68 0.34 1.36 0 0 Z "
        fill="# " transform="translate(32,46)" />
    <path d="M0 0 C0.66 0 1.32 0 2 0 C2.33 1.98 2.66 3.96 3 6 C1.68 6 0.36 6 -1 6 C-0.67 4.02 -0.34 2.04 0 0 Z "
        fill="# " transform="translate(34,33)" />
</svg>