<?xml version="1.0" encoding="UTF-8"?>
<svg version="1.1" xmlns="http://www.w3.org/2000/svg" width="95" height="80">
    <path
        d="M0 0 C9.81976513 5.97284683 16.19567986 13.87077254 19.14453125 24.98828125 C21.10561369 35.12556895 19.38179439 45.29681928 14.109375 54.2265625 C8.25780444 62.19380388 0.39381373 68.36331592 -9.34765625 70.61328125 C-21.12913724 72.11339838 -31.28862852 70.64977857 -41.12890625 63.62890625 C-49.86673344 56.38164958 -54.47041399 47.31822369 -55.6015625 36.09375 C-56.03859013 26.23948192 -53.32163192 16.97492579 -46.9609375 9.3515625 C-46.42855469 8.77792969 -45.89617188 8.20429688 -45.34765625 7.61328125 C-44.59548828 6.79923828 -44.59548828 6.79923828 -43.828125 5.96875 C-32.20735904 -5.19962605 -14.21809587 -6.9237641 0 0 Z "
        fill="#fcb900" transform="translate(65.34765625,6.38671875)" />
    <path
        d="M0 0 C2.475 0.99 2.475 0.99 5 2 C5 2.66 5 3.32 5 4 C8.63 4 12.26 4 16 4 C15.67 6.64 15.34 9.28 15 12 C16.65 12 18.3 12 20 12 C20 13.98 20 15.96 20 18 C19.030625 18.12375 18.06125 18.2475 17.0625 18.375 C16.051875 18.58125 15.04125 18.7875 14 19 C13.67 19.66 13.34 20.32 13 21 C13.66 21 14.32 21 15 21 C15 21.66 15 22.32 15 23 C0.48 23 -14.04 23 -29 23 C-29 22.34 -29 21.68 -29 21 C-20.09 21 -11.18 21 -2 21 C-2.66 19.68 -3.32 18.36 -4 17 C-4.28693388 14.75866742 -4.48966591 12.5055681 -4.625 10.25 C-4.69976562 9.07953125 -4.77453125 7.9090625 -4.8515625 6.703125 C-4.90054688 5.81109375 -4.94953125 4.9190625 -5 4 C-4.01 4 -3.02 4 -2 4 C-1.34 2.68 -0.68 1.36 0 0 Z "
        fill="#" transform="translate(55,35)" />
    <path
        d="M0 0 C1.98 0 3.96 0 6 0 C6 1.65 6 3.3 6 5 C6.99 5 7.98 5 9 5 C9 3.35 9 1.7 9 0 C10.98 0 12.96 0 15 0 C15 1.65 15 3.3 15 5 C16.32 5.66 17.64 6.32 19 7 C19.125 9.375 19.125 9.375 19 12 C17 14 17 14 14.11083984 14.22705078 C12.90637207 14.21657715 11.7019043 14.20610352 10.4609375 14.1953125 C8.50800781 14.18564453 8.50800781 14.18564453 6.515625 14.17578125 C5.13541405 14.15906929 3.75520571 14.14213939 2.375 14.125 C0.98698548 14.11497006 -0.40103589 14.10584423 -1.7890625 14.09765625 C-5.19288026 14.07401863 -8.59635506 14.04106867 -12 14 C-12 11.03 -12 8.06 -12 5 C-10.68 5 -9.36 5 -8 5 C-7.67 3.68 -7.34 2.36 -7 1 C-7 2.32 -7 3.64 -7 5 C-6.01 5 -5.02 5 -4 5 C-3.67 3.68 -3.34 2.36 -3 1 C-3 2.32 -3 3.64 -3 5 C-2.01 5 -1.02 5 0 5 C0 3.35 0 1.7 0 0 Z "
        fill="#" transform="translate(32,22)" />
    <path
        d="M0 0 C5.28 0 10.56 0 16 0 C16 1.32 16 2.64 16 4 C14.68 4.33 13.36 4.66 12 5 C12.57584432 7.38564077 13.22227595 9.66682784 14 12 C11.67313547 13.16343227 10.15278587 13.19895988 7.5625 13.25 C6.78003906 13.27578125 5.99757813 13.3015625 5.19140625 13.328125 C3 13 3 13 1.2265625 11.80859375 C-1.14921541 8.30545626 -0.15891318 4.07877156 0 0 Z "
        fill="#" transform="translate(53,43)" />
    <path
        d="M0 0 C4.47915328 -0.02886338 8.95828291 -0.04675187 13.4375 -0.0625 C14.71689453 -0.07087891 15.99628906 -0.07925781 17.31445312 -0.08789062 C19.13686523 -0.09272461 19.13686523 -0.09272461 20.99609375 -0.09765625 C22.12200928 -0.10289307 23.2479248 -0.10812988 24.40795898 -0.11352539 C27 0 27 0 28 1 C28.125 3.5 28.125 3.5 28 6 C27 7 27 7 24.71484375 7.09765625 C23.34005859 7.08025391 23.34005859 7.08025391 21.9375 7.0625 C21.01839844 7.05347656 20.09929688 7.04445313 19.15234375 7.03515625 C18.44207031 7.02355469 17.73179688 7.01195312 17 7 C16.67 5.35 16.34 3.7 16 2 C14.68 1.67 13.36 1.34 12 1 C12 2.65 12 4.3 12 6 C11.01 6 10.02 6 9 6 C8.67 4.68 8.34 3.36 8 2 C6.68 1.67 5.36 1.34 4 1 C4 2.65 4 4.3 4 6 C4.99 6.33 5.98 6.66 7 7 C4.69 7 2.38 7 0 7 C0 4.69 0 2.38 0 0 Z "
        fill="#" transform="translate(21,28)" />
    <path
        d="M0 0 C2.475 0.99 2.475 0.99 5 2 C5 2.66 5 3.32 5 4 C8.3 4 11.6 4 15 4 C15 4.99 15 5.98 15 7 C8.73 7 2.46 7 -4 7 C-4 6.01 -4 5.02 -4 4 C-3.34 4 -2.68 4 -2 4 C-1.34 2.68 -0.68 1.36 0 0 Z "
        fill="#" transform="translate(55,35)" />
    <path
        d="M0 0 C3.3 0 6.6 0 10 0 C10.33 1.65 10.66 3.3 11 5 C10.030625 5.12375 9.06125 5.2475 8.0625 5.375 C6.5465625 5.684375 6.5465625 5.684375 5 6 C4.67 6.66 4.34 7.32 4 8 C4.66 8 5.32 8 6 8 C6 8.66 6 9.32 6 10 C3.69 10 1.38 10 -1 10 C0.32 9.67 1.64 9.34 3 9 C2.690625 8.2575 2.38125 7.515 2.0625 6.75 C1 4 1 4 0 0 Z "
        fill="#" transform="translate(64,48)" />
    <path
        d="M0 0 C1.98 0 3.96 0 6 0 C6 1.65 6 3.3 6 5 C7.32 5.66 8.64 6.32 10 7 C10.1875 9.375 10.1875 9.375 10 12 C9.01 12.66 8.02 13.32 7 14 C7 11.69 7 9.38 7 7 C3.37 6.67 -0.26 6.34 -4 6 C-2.68 5.67 -1.36 5.34 0 5 C0 3.35 0 1.7 0 0 Z "
        fill="#" transform="translate(41,22)" />
    <path
        d="M0 0 C2.475 0.495 2.475 0.495 5 1 C5 2.32 5 3.64 5 5 C5.99 5 6.98 5 8 5 C8 3.35 8 1.7 8 0 C9.32 0 10.64 0 12 0 C11.67 1.98 11.34 3.96 11 6 C9.741875 6.020625 8.48375 6.04125 7.1875 6.0625 C6.47980469 6.07410156 5.77210937 6.08570313 5.04296875 6.09765625 C3 6 3 6 0 5 C0 3.35 0 1.7 0 0 Z "
        fill="#" transform="translate(25,29)" />
    <path
        d="M0 0 C2.97 0 5.94 0 9 0 C8.67 0.66 8.34 1.32 8 2 C6.68 1.67 5.36 1.34 4 1 C4 2.65 4 4.3 4 6 C4.99 6.33 5.98 6.66 7 7 C4.69 7 2.38 7 0 7 C0 4.69 0 2.38 0 0 Z "
        fill="#" transform="translate(21,28)" />
    <path
        d="M0 0 C2.475 0.99 2.475 0.99 5 2 C4.34 3.65 3.68 5.3 3 7 C0.525 6.01 0.525 6.01 -2 5 C-1.34 3.35 -0.68 1.7 0 0 Z "
        fill="#" transform="translate(55,27)" />
    <path d="M0 0 C1.98 0 3.96 0 6 0 C6 1.65 6 3.3 6 5 C4.35 5 2.7 5 1 5 C0.67 3.35 0.34 1.7 0 0 Z " fill="#"
        transform="translate(41,22)" />
    <path d="M0 0 C1.98 0 3.96 0 6 0 C5.67 1.65 5.34 3.3 5 5 C3.35 5 1.7 5 0 5 C0 3.35 0 1.7 0 0 Z " fill="#"
        transform="translate(32,22)" />
    <path
        d="M0 0 C1.98 0 3.96 0 6 0 C5.67 1.65 5.34 3.3 5 5 C2.36 5 -0.28 5 -3 5 C-2.01 4.67 -1.02 4.34 0 4 C0 2.68 0 1.36 0 0 Z "
        fill="#" transform="translate(23,22)" />
    <path d="M0 0 C2.64 0 5.28 0 8 0 C8 0.99 8 1.98 8 3 C5.36 3 2.72 3 0 3 C0 2.01 0 1.02 0 0 Z " fill="#"
        transform="translate(66,48)" />
    <path d="M0 0 C2.475 0.495 2.475 0.495 5 1 C4.67 2.32 4.34 3.64 4 5 C2.68 5 1.36 5 0 5 C0 3.35 0 1.7 0 0 Z "
        fill="#" transform="translate(25,29)" />
    <path d="M0 0 C1.32 0 2.64 0 4 0 C3.67 1.65 3.34 3.3 3 5 C1.68 4.67 0.36 4.34 -1 4 C-0.67 2.68 -0.34 1.36 0 0 Z "
        fill="#" transform="translate(42,29)" />
    <path d="M0 0 C1.32 0.33 2.64 0.66 4 1 C3.67 2.65 3.34 4.3 3 6 C2.01 6 1.02 6 0 6 C0 4.02 0 2.04 0 0 Z " fill="#"
        transform="translate(30,28)" />
    <path
        d="M0 0 C0.66 0.33 1.32 0.66 2 1 C1.67 1.99 1.34 2.98 1 4 C1.99 4 2.98 4 4 4 C3.67 4.99 3.34 5.98 3 7 C0.525 6.01 0.525 6.01 -2 5 C-1.34 3.35 -0.68 1.7 0 0 Z "
        fill="#" transform="translate(63,31)" />
    <path d="M0 0 C0.99 0.33 1.98 0.66 3 1 C3 1.99 3 2.98 3 4 C1.68 4.33 0.36 4.66 -1 5 C-1 1 -1 1 0 0 Z " fill="#"
        transform="translate(65,31)" />
</svg>