<?xml version="1.0" encoding="UTF-8"?>
<svg version="1.1" xmlns="http://www.w3.org/2000/svg" width="95" height="80">
    <path
        d="M0 0 C9.74639808 6.97871863 14.90426562 15.23164538 17 27 C18.19044252 37.13327905 15.80475864 46.61725137 9.75 54.875 C2.98230279 62.82093748 -5.40757766 68.53166154 -15.99609375 69.41796875 C-27.58420355 69.98579529 -36.83371465 67.76651342 -45.9375 60.1875 C-53.78754234 52.59297441 -57.95886024 43.66430524 -58.4375 32.6875 C-58.0746424 21.99831986 -54.53828802 12.61536663 -47 5 C-34.0828462 -6.97723616 -15.18976297 -9.23913418 0 0 Z "
        fill="#fcb900" transform="translate(68,8)" />
    <path
        d="M0 0 C15.51 0 31.02 0 47 0 C47 1.98 47 3.96 47 6 C45.35 6 43.7 6 42 6 C42 7.32 42 8.64 42 10 C39.69 10 37.38 10 35 10 C35 10.99 35 11.98 35 13 C35.66 13 36.32 13 37 13 C37 14.65 37 16.3 37 18 C36.34 18 35.68 18 35 18 C35 18.99 35 19.98 35 21 C35.66 21 36.32 21 37 21 C37 22.65 37 24.3 37 26 C34.69 26 32.38 26 30 26 C30 27.32 30 28.64 30 30 C29.34 30 28.68 30 28 30 C27.87625 30.61875 27.7525 31.2375 27.625 31.875 C27 34 27 34 25 36 C24.75787127 37.98128508 24.75787127 37.98128508 24.875 40.125 C24.91625 41.40375 24.9575 42.6825 25 44 C27.64 43.67 30.28 43.34 33 43 C33 43.66 33 44.32 33 45 C35.31 45.33 37.62 45.66 40 46 C40.495 47.98 40.495 47.98 41 50 C29.45 50 17.9 50 6 50 C6 48.68 6 47.36 6 46 C9.07617188 45.70703125 9.07617188 45.70703125 12.15234375 45.4140625 C13.06693359 45.20910156 13.06693359 45.20910156 14 45 C14.33 44.34 14.66 43.68 15 43 C18.465 43.495 18.465 43.495 22 44 C22.57490412 38.69888057 22.57490412 38.69888057 20.5 34.1875 C20.005 33.795625 19.51 33.40375 19 33 C19 32.01 19 31.02 19 30 C18.34 30 17.68 30 17 30 C17 28.68 17 27.36 17 26 C14.69 26 12.38 26 10 26 C10 24.35 10 22.7 10 21 C10.66 21 11.32 21 12 21 C12 20.01 12 19.02 12 18 C11.34 18 10.68 18 10 18 C10.33 16.68 10.66 15.36 11 14 C11 14.99 11 15.98 11 17 C12.32 17 13.64 17 15 17 C15.33 16.01 15.66 15.02 16 14 C16 14.99 16 15.98 16 17 C16.99 17 17.98 17 19 17 C18.67 15.68 18.34 14.36 18 13 C22.95 13 27.9 13 33 13 C33 12.01 33 11.02 33 10 C26.73 10 20.46 10 14 10 C14 11.32 14 12.64 14 14 C13.34 14 12.68 14 12 14 C12 12.68 12 11.36 12 10 C9.69 10 7.38 10 5 10 C5 8.68 5 7.36 5 6 C3.35 6 1.7 6 0 6 C0 4.02 0 2.04 0 0 Z "
        fill="#" transform="translate(24,15)" />
    <path
        d="M0 0 C2.64 0 5.28 0 8 0 C8 0.33 8 0.66 8 1 C6.35 1 4.7 1 3 1 C3 1.99 3 2.98 3 4 C4.98 4 6.96 4 9 4 C9.33 3.01 9.66 2.02 10 1 C10 1.99 10 2.98 10 4 C10.99 4 11.98 4 13 4 C13.33 3.01 13.66 2.02 14 1 C14.33 2.32 14.66 3.64 15 5 C8.73 5 2.46 5 -4 5 C-4 6.32 -4 7.64 -4 9 C2.27 9 8.54 9 15 9 C15 9.33 15 9.66 15 10 C7.74 10 0.48 10 -7 10 C-7 10.66 -7 11.32 -7 12 C1.25 12 9.5 12 18 12 C18.33 11.01 18.66 10.02 19 9 C19 10.32 19 11.64 19 13 C16.69 13 14.38 13 12 13 C12 14.32 12 15.64 12 17 C11.34 17 10.68 17 10 17 C9.87625 17.61875 9.7525 18.2375 9.625 18.875 C9 21 9 21 7 23 C6.75787127 24.98128508 6.75787127 24.98128508 6.875 27.125 C6.91625 28.40375 6.9575 29.6825 7 31 C10.96 30.505 10.96 30.505 15 30 C15 30.66 15 31.32 15 32 C18.465 32.495 18.465 32.495 22 33 C22.495 34.98 22.495 34.98 23 37 C11.45 37 -0.1 37 -12 37 C-12 35.68 -12 34.36 -12 33 C-8.92382812 32.70703125 -8.92382812 32.70703125 -5.84765625 32.4140625 C-4.93306641 32.20910156 -4.93306641 32.20910156 -4 32 C-3.67 31.34 -3.34 30.68 -3 30 C-0.69 30.33 1.62 30.66 4 31 C4.57490412 25.69888057 4.57490412 25.69888057 2.5 21.1875 C2.005 20.795625 1.51 20.40375 1 20 C1 19.01 1 18.02 1 17 C0.34 17 -0.32 17 -1 17 C-1 15.68 -1 14.36 -1 13 C-3.31 13 -5.62 13 -8 13 C-8 11.35 -8 9.7 -8 8 C-7.34 8 -6.68 8 -6 8 C-6 7.01 -6 6.02 -6 5 C-6.66 5 -7.32 5 -8 5 C-7.67 3.68 -7.34 2.36 -7 1 C-7 1.99 -7 2.98 -7 4 C-5.68 4 -4.36 4 -3 4 C-2.67 3.01 -2.34 2.02 -2 1 C-2 1.99 -2 2.98 -2 4 C-1.01 4 -0.02 4 1 4 C0.67 2.68 0.34 1.36 0 0 Z "
        fill="#" transform="translate(42,28)" />
    <path
        d="M0 0 C0.66 0 1.32 0 2 0 C2 0.99 2 1.98 2 3 C2.66 3 3.32 3 4 3 C4 4.65 4 6.3 4 8 C3.34 8 2.68 8 2 8 C2 8.99 2 9.98 2 11 C2.66 11.33 3.32 11.66 4 12 C3.67 12.99 3.34 13.98 3 15 C-5.25 15 -13.5 15 -22 15 C-22 14.34 -22 13.68 -22 13 C-21.01 12.67 -20.02 12.34 -19 12 C-19 10.68 -19 9.36 -19 8 C-12.565 7.505 -12.565 7.505 -6 7 C-7.98 7 -9.96 7 -12 7 C-12 6.01 -12 5.02 -12 4 C-7.9472484 3.01751476 -4.16138263 2.91840426 0 3 C0 2.01 0 1.02 0 0 Z "
        fill="#" transform="translate(57,25)" />
    <path
        d="M0 0 C0 2.97 0 5.94 0 9 C-6.27 9 -12.54 9 -19 9 C-19 7.68 -19 6.36 -19 5 C-20.65 5 -22.3 5 -24 5 C-23.67 3.68 -23.34 2.36 -23 1 C-19.91675903 0.83159521 -16.83339379 0.66558138 -13.75 0.5 C-12.87730469 0.45230469 -12.00460938 0.40460937 -11.10546875 0.35546875 C-10.26113281 0.31035156 -9.41679688 0.26523438 -8.546875 0.21875 C-7.38430176 0.1559082 -7.38430176 0.1559082 -6.19824219 0.09179688 C-4.13373418 0.00558463 -2.0663073 0 0 0 Z "
        fill="#" transform="translate(49,15)" />
    <path
        d="M0 0 C2.64 0 5.28 0 8 0 C8 0.33 8 0.66 8 1 C6.35 1 4.7 1 3 1 C3 1.99 3 2.98 3 4 C4.98 4 6.96 4 9 4 C9.33 3.01 9.66 2.02 10 1 C10 1.99 10 2.98 10 4 C10.99 4 11.98 4 13 4 C13.33 3.01 13.66 2.02 14 1 C14.33 2.32 14.66 3.64 15 5 C8.73 5 2.46 5 -4 5 C-4 6.32 -4 7.64 -4 9 C2.27 9 8.54 9 15 9 C15 9.33 15 9.66 15 10 C7.74 10 0.48 10 -7 10 C-7 10.66 -7 11.32 -7 12 C1.25 12 9.5 12 18 12 C18.33 11.01 18.66 10.02 19 9 C19 10.32 19 11.64 19 13 C16.69 13 14.38 13 12 13 C11.67 13.99 11.34 14.98 11 16 C11 15.01 11 14.02 11 13 C7.37 13 3.74 13 0 13 C-0.33 13.99 -0.66 14.98 -1 16 C-1 15.01 -1 14.02 -1 13 C-3.31 13 -5.62 13 -8 13 C-8 11.35 -8 9.7 -8 8 C-7.34 8 -6.68 8 -6 8 C-6 7.01 -6 6.02 -6 5 C-6.66 5 -7.32 5 -8 5 C-7.67 3.68 -7.34 2.36 -7 1 C-7 1.99 -7 2.98 -7 4 C-5.68 4 -4.36 4 -3 4 C-2.67 3.01 -2.34 2.02 -2 1 C-2 1.99 -2 2.98 -2 4 C-1.01 4 -0.02 4 1 4 C0.67 2.68 0.34 1.36 0 0 Z "
        fill="#" transform="translate(42,28)" />
    <path d="M0 0 C6.93 0 13.86 0 21 0 C21 1.98 21 3.96 21 6 C14.07 5.67 7.14 5.34 0 5 C0 3.35 0 1.7 0 0 Z " fill="#"
        transform="translate(50,15)" />
    <path
        d="M0 0 C3.63 0 7.26 0 11 0 C11.33 1.32 11.66 2.64 12 4 C11.34 4 10.68 4 10 4 C9.9175 4.61875 9.835 5.2375 9.75 5.875 C9 8 9 8 6.9375 9.25 C6.298125 9.4975 5.65875 9.745 5 10 C3 8.6875 3 8.6875 1 7 C1 6.01 1 5.02 1 4 C0.34 3.67 -0.32 3.34 -1 3 C-0.67 2.01 -0.34 1.02 0 0 Z "
        fill="#" transform="translate(42,41)" />
    <path
        d="M0 0 C6.27 0 12.54 0 19 0 C19 0.99 19 1.98 19 3 C14.38 3.33 9.76 3.66 5 4 C5 4.99 5 5.98 5 7 C2.36 7 -0.28 7 -3 7 C-3.33 5.68 -3.66 4.36 -4 3 C-2.68 3.33 -1.36 3.66 0 4 C0 2.68 0 1.36 0 0 Z "
        fill="#" transform="translate(38,25)" />
    <path
        d="M0 0 C0.33 0 0.66 0 1 0 C1.33 2.97 1.66 5.94 2 9 C4.64 8.67 7.28 8.34 10 8 C10 8.66 10 9.32 10 10 C12.31 10.33 14.62 10.66 17 11 C17 11.33 17 11.66 17 12 C6.44 12 -4.12 12 -15 12 C-15 11.67 -15 11.34 -15 11 C-13.5459375 10.814375 -13.5459375 10.814375 -12.0625 10.625 C-11.051875 10.41875 -10.04125 10.2125 -9 10 C-8.67 9.34 -8.34 8.68 -8 8 C-5.69 8.33 -3.38 8.66 -1 9 C-0.67 6.03 -0.34 3.06 0 0 Z "
        fill="#" transform="translate(47,50)" />
    <path
        d="M0 0 C0.66 0 1.32 0 2 0 C2 0.99 2 1.98 2 3 C2.66 3.33 3.32 3.66 4 4 C3.67 4.99 3.34 5.98 3 7 C-1.95 7 -6.9 7 -12 7 C-12 6.01 -12 5.02 -12 4 C-7.9472484 3.01751476 -4.16138263 2.91840426 0 3 C0 2.01 0 1.02 0 0 Z "
        fill="#" transform="translate(57,25)" />
    <path d="M0 0 C4.95 0 9.9 0 15 0 C15 0.99 15 1.98 15 3 C10.05 3 5.1 3 0 3 C0 2.01 0 1.02 0 0 Z " fill="#"
        transform="translate(50,21)" />
    <path d="M0 0 C4.95 0 9.9 0 15 0 C15 0.99 15 1.98 15 3 C10.05 3 5.1 3 0 3 C0 2.01 0 1.02 0 0 Z " fill="#"
        transform="translate(30,21)" />
    <path
        d="M0 0 C0.66 0 1.32 0 2 0 C2 0.99 2 1.98 2 3 C8.27 3 14.54 3 21 3 C21 3.33 21 3.66 21 4 C13.74 4 6.48 4 -1 4 C-1.33 3.34 -1.66 2.68 -2 2 C-1.34 2 -0.68 2 0 2 C0 1.34 0 0.68 0 0 Z "
        fill="#" transform="translate(36,34)" />
    <path d="M0 0 C2.64 0 5.28 0 8 0 C8.33 1.32 8.66 2.64 9 4 C6.36 4 3.72 4 1 4 C0.67 2.68 0.34 1.36 0 0 Z " fill="#"
        transform="translate(34,28)" />
    <path d="M0 0 C1.65 0 3.3 0 5 0 C4.67 1.32 4.34 2.64 4 4 C3.01 4 2.02 4 1 4 C0.67 2.68 0.34 1.36 0 0 Z " fill="#"
        transform="translate(45,45)" />
</svg>