<?xml version="1.0" encoding="UTF-8"?>
<svg version="1.1" xmlns="http://www.w3.org/2000/svg" width="95" height="80">
    <path
        d="M0 0 C9.77417363 6.99860677 14.8494726 15.22172686 17 27 C18.27386085 36.8180495 15.61507163 46.96529737 9.75 54.9375 C2.94588977 62.82506728 -5.42610402 68.53321228 -15.99609375 69.41796875 C-27.91798763 70.00356313 -37.08426274 67.57018502 -46.4375 59.8125 C-51.00268515 55.40852524 -53.73648469 50.89107042 -56 45 C-56.433125 43.88625 -56.86625 42.7725 -57.3125 41.625 C-59.3406951 30.93088039 -58.16445676 20.86344646 -52.45703125 11.45703125 C-40.16344808 -5.33763501 -18.22552886 -11.08563096 0 0 Z "
        fill="#fcb900" transform="translate(68,8)" />
    <path
        d="M0 0 C2.21216723 2.03566453 4.07691552 3.97060799 6 6.25 C7.01737068 7.42488238 8.03815363 8.59681953 9.0625 9.765625 C9.55234375 10.32572266 10.0421875 10.88582031 10.546875 11.46289062 C12.13523645 13.21574673 12.13523645 13.21574673 14.8125 15.234375 C17 17 17 17 18 20 C18.06740865 21.56118428 18.08514456 23.1250252 18.0625 24.6875 C18.05347656 25.49574219 18.04445312 26.30398437 18.03515625 27.13671875 C18.02355469 27.75160156 18.01195312 28.36648437 18 29 C16.68 28.67 15.36 28.34 14 28 C14 27.01 14 26.02 14 25 C13.34 25 12.68 25 12 25 C11.67 26.32 11.34 27.64 11 29 C10.01 29 9.02 29 8 29 C8.08121094 28.35933594 8.16242187 27.71867187 8.24609375 27.05859375 C8.53428255 23.11217166 8.73560693 20.17129698 6.58203125 16.7421875 C4.7798421 14.84393283 3.28453176 13.28620995 1 12 C-3.00902696 12.30720513 -5.02008232 14.5239882 -7.671875 17.31640625 C-10.58050783 21.0035261 -11 24.41664706 -11 29 C-8.57327433 30.78969026 -8.57327433 30.78969026 -6 32 C-6.99 34.475 -6.99 34.475 -8 37 C-7.34 37.33 -6.68 37.66 -6 38 C-5.67 37.34 -5.34 36.68 -5 36 C-5 36.66 -5 37.32 -5 38 C-4.34 38 -3.68 38 -3 38 C-2.67 37.34 -2.34 36.68 -2 36 C-2 36.66 -2 37.32 -2 38 C-1.34 38 -0.68 38 0 38 C0.33 37.34 0.66 36.68 1 36 C1 36.66 1 37.32 1 38 C1.5775 37.79375 2.155 37.5875 2.75 37.375 C5.66923445 36.88846092 6.54650543 37.36433695 9 39 C11.75 41.1875 11.75 41.1875 14 44 C14.3125 47.8125 14.3125 47.8125 14 51 C15.65 51 17.3 51 19 51 C19 51.33 19 51.66 19 52 C5.14 52 -8.72 52 -23 52 C-21.02 51.505 -21.02 51.505 -19 51 C-19.1546875 49.4221875 -19.1546875 49.4221875 -19.3125 47.8125 C-19 44 -19 44 -16.75 41.125 C-14.30914718 39.23888646 -13.00649796 38.33405533 -10 38 C-9.66501699 35.66834966 -9.66501699 35.66834966 -10 33 C-11.9375006 30.81222534 -11.9375006 30.81222534 -14 29 C-14 28.34 -14 27.68 -14 27 C-14.78375 27.04125 -15.5675 27.0825 -16.375 27.125 C-19 27 -19 27 -21 25 C-21.125 21.375 -21.125 21.375 -21 18 C-17.75 16.375 -17.75 16.375 -14 15 C-11.5625 15.8125 -11.5625 15.8125 -10 17 C-8.35 15.02 -6.7 13.04 -5 11 C-6.98 11.66 -8.96 12.32 -11 13 C-10.34 12.01 -9.68 11.02 -9 10 C-8.855625 8.845 -8.71125 7.69 -8.5625 6.5 C-8 3 -8 3 -6.75 1.0625 C-4.20314568 -0.48380441 -2.96000904 -0.48915404 0 0 Z "
        fill="#" transform="translate(50,14)" />
    <path
        d="M0 0 C1.30066406 -0.00128906 2.60132813 -0.00257812 3.94140625 -0.00390625 C4.96258545 -0.00076416 4.96258545 -0.00076416 6.00439453 0.00244141 C8.08503515 0.0077901 10.16545989 0.0024957 12.24609375 -0.00390625 C14.19708984 -0.00197266 14.19708984 -0.00197266 16.1875 0 C17.39083984 0.00112793 18.59417969 0.00225586 19.83398438 0.00341797 C22.59375 0.1328125 22.59375 0.1328125 23.59375 1.1328125 C23.59375 3.1128125 23.59375 5.0928125 23.59375 7.1328125 C13.36375 7.1328125 3.13375 7.1328125 -7.40625 7.1328125 C-7.40625 -0.91000662 -7.19511469 0.00674422 0 0 Z "
        fill="#" transform="translate(39.40625,57.8671875)" />
    <path
        d="M0 0 C2.21216723 2.03566453 4.07691552 3.97060799 6 6.25 C7.01737068 7.42488238 8.03815363 8.59681953 9.0625 9.765625 C9.55105469 10.32572266 10.03960937 10.88582031 10.54296875 11.46289062 C12.13877483 13.22382473 12.13877483 13.22382473 14.875 15.234375 C15.57625 15.81703125 16.2775 16.3996875 17 17 C17 17.99 17 18.98 17 20 C15.02 20 13.04 20 11 20 C11 19.34 11 18.68 11 18 C10.443125 17.773125 9.88625 17.54625 9.3125 17.3125 C5.65660676 15.23753357 2.6048052 12.72136865 1.1875 8.6875 C1.125625 8.130625 1.06375 7.57375 1 7 C0.67 7.99 0.34 8.98 0 10 C-1.0725 10.12375 -2.145 10.2475 -3.25 10.375 C-6.37863615 10.89643936 -8.33480424 11.40088254 -11 13 C-10.34 12.01 -9.68 11.02 -9 10 C-8.7834375 8.2675 -8.7834375 8.2675 -8.5625 6.5 C-8 3 -8 3 -6.75 1.0625 C-4.20314568 -0.48380441 -2.96000904 -0.48915404 0 0 Z "
        fill="#" transform="translate(50,14)" />
    <path
        d="M0 0 C2.44692202 1.04868087 4.00762186 2.00787592 5.875 3.9375 C7.96961241 6.18879469 7.96961241 6.18879469 11.125 7.5 C14.14559062 9.07596032 14.91463814 9.85245061 16 13 C11.32798795 14.20568053 6.78503708 14.09382426 2 14 C2.99 12.02 3.98 10.04 5 8 C4.401875 7.896875 3.80375 7.79375 3.1875 7.6875 C0.71756736 6.91123545 -0.32251235 5.92911079 -2 4 C-1.34 2.68 -0.68 1.36 0 0 Z "
        fill="#" transform="translate(39,38)" />
    <path
        d="M0 0 C1.58538318 2.51796153 2.0373656 3.67865586 1.6875 6.6875 C1 9 1 9 0 10 C-1.6396875 10.2165625 -1.6396875 10.2165625 -3.3125 10.4375 C-6.44101199 10.91473064 -8.34101141 11.40460685 -11 13 C-10.34 12.01 -9.68 11.02 -9 10 C-8.7834375 8.2675 -8.7834375 8.2675 -8.5625 6.5 C-8 3 -8 3 -6.75 1.0625 C-4.41628148 -0.35440053 -2.67863922 -0.21718696 0 0 Z "
        fill="#" transform="translate(50,14)" />
    <path
        d="M0 0 C0.66 0.33 1.32 0.66 2 1 C1.67 1.33 1.34 1.66 1 2 C0.95936168 3.66617115 0.957279 5.33388095 1 7 C1.78375 7.144375 2.5675 7.28875 3.375 7.4375 C6 8 6 8 8 9 C8.28875 9.639375 8.5775 10.27875 8.875 10.9375 C10.22909764 13.42001234 11.42178493 13.96871397 14 15 C13.01 17.475 13.01 17.475 12 20 C12.66 20.33 13.32 20.66 14 21 C14.33 20.34 14.66 19.68 15 19 C15 19.66 15 20.32 15 21 C15.66 21 16.32 21 17 21 C17.33 20.34 17.66 19.68 18 19 C18 19.66 18 20.32 18 21 C18.66 21 19.32 21 20 21 C20.33 20.34 20.66 19.68 21 19 C21 19.66 21 20.32 21 21 C21.598125 20.79375 22.19625 20.5875 22.8125 20.375 C25 20 25 20 28 22 C21.07 22 14.14 22 7 22 C7.99 21.67 8.98 21.34 10 21 C10.33498301 18.66834966 10.33498301 18.66834966 10 16 C8.0624994 13.81222534 8.0624994 13.81222534 6 12 C6 11.34 6 10.68 6 10 C5.21625 10.04125 4.4325 10.0825 3.625 10.125 C1 10 1 10 -1 8 C-1.1875 4.4375 -1.1875 4.4375 -1 1 C-0.67 0.67 -0.34 0.34 0 0 Z "
        fill="#" transform="translate(30,31)" />
    <path
        d="M0 0 C0.33 0.66 0.66 1.32 1 2 C3.31 2 5.62 2 8 2 C8 4.31 8 6.62 8 9 C7.01 9 6.02 9 5 9 C5 8.01 5 7.02 5 6 C4.34 6 3.68 6 3 6 C2.67 7.32 2.34 8.64 2 10 C1.01 10 0.02 10 -1 10 C-1.02689216 8.52093108 -1.04634621 7.04172517 -1.0625 5.5625 C-1.07410156 4.73878906 -1.08570313 3.91507813 -1.09765625 3.06640625 C-1 1 -1 1 0 0 Z "
        fill="#" transform="translate(59,33)" />
    <path
        d="M0 0 C3.29714793 0.32971479 4.6226839 0.6226839 7 3 C6.625 5.625 6.625 5.625 6 8 C3.125 8.625 3.125 8.625 0 9 C-2 7 -2 7 -2.25 4.5 C-2 2 -2 2 0 0 Z "
        fill="#" transform="translate(32,31)" />
    <path d="M0 0 C6.93 0 13.86 0 21 0 C21 0.99 21 1.98 21 3 C14.07 3 7.14 3 0 3 C0 2.01 0 1.02 0 0 Z " fill="#"
        transform="translate(37,53)" />
    <path d="M0 0 C3.5 -0.625 3.5 -0.625 7 0 C7.99 1.65 8.98 3.3 10 5 C5.71 5 1.42 5 -3 5 C-2.01 3.35 -1.02 1.7 0 0 Z "
        fill="#" transform="translate(44,47)" />
    <path
        d="M0 0 C1.12894876 0.93274109 2.25300876 1.87140122 3.375 2.8125 C4.00148438 3.33457031 4.62796875 3.85664063 5.2734375 4.39453125 C7 6 7 6 9 9 C8.01 9.66 7.02 10.32 6 11 C4.79794536 9.93283928 3.61367667 8.84561663 2.4375 7.75 C1.77621094 7.14671875 1.11492188 6.5434375 0.43359375 5.921875 C-1 4 -1 4 -0.71484375 1.765625 C-0.47894531 1.18296875 -0.24304687 0.6003125 0 0 Z "
        fill="#" transform="translate(53,21)" />
    <path
        d="M0 0 C-1.98 2.31 -3.96 4.62 -6 7 C-6.99 6.67 -7.98 6.34 -9 6 C-8.8125 4.1875 -8.8125 4.1875 -8 2 C-3.744 -1.248 -3.744 -1.248 0 0 Z "
        fill="#" transform="translate(46,25)" />
    <path
        d="M0 0 C2.86697492 1.28519565 4.97607712 2.57129254 7 5 C7 5.66 7 6.32 7 7 C3.31245243 6.50168276 1.39509338 5.89932357 -1 3 C-0.67 2.01 -0.34 1.02 0 0 Z "
        fill="#" transform="translate(38,39)" />
    <path
        d="M0 0 C0.33 0.99 0.66 1.98 1 3 C2.32 3 3.64 3 5 3 C5 3.66 5 4.32 5 5 C2.36 5.33 -0.28 5.66 -3 6 C-3.33 7.98 -3.66 9.96 -4 12 C-4.33 12 -4.66 12 -5 12 C-5.3125 8.8125 -5.3125 8.8125 -5 5 C-2.5 2.0625 -2.5 2.0625 0 0 Z "
        fill="#" transform="translate(36,53)" />
    <path
        d="M0 0 C1.67542976 0.28604898 3.34385343 0.61781233 5 1 C5 2.32 5 3.64 5 5 C3.35 5 1.7 5 0 5 C-0.5625 3.0625 -0.5625 3.0625 -1 1 C-0.67 0.67 -0.34 0.34 0 0 Z "
        fill="#" transform="translate(32,33)" />
    <path
        d="M0 0 C2.31 0 4.62 0 7 0 C7 1.98 7 3.96 7 6 C6.34 5.01 5.68 4.02 5 3 C4.01 3 3.02 3 2 3 C1.34 3.99 0.68 4.98 0 6 C0 4.02 0 2.04 0 0 Z "
        fill="#" transform="translate(60,35)" />
    <path
        d="M0 0 C4.22797927 2.90673575 4.22797927 2.90673575 6 5 C6.375 8.8125 6.375 8.8125 6 12 C5.67 12 5.34 12 5 12 C4.9175 11.05125 4.835 10.1025 4.75 9.125 C4.34925077 5.89538209 4.34925077 5.89538209 1.9375 4.625 C1.298125 4.41875 0.65875 4.2125 0 4 C0 2.68 0 1.36 0 0 Z "
        fill="#" transform="translate(58,53)" />
</svg>