<?xml version="1.0" encoding="UTF-8"?>
<svg version="1.1" xmlns="http://www.w3.org/2000/svg" width="95" height="80">
    <path
        d="M0 0 C9.2073919 5.60037239 15.3195669 12.6827889 18.46484375 22.98828125 C21.07661422 33.91568872 19.9037786 44.4019867 14.109375 54.23046875 C8.25113545 62.19338475 0.39552306 68.36292112 -9.34765625 70.61328125 C-20.95793181 72.09159906 -31.19867517 70.73216999 -40.90625 63.78125 C-49.91163184 56.28415871 -54.16431161 47.73369362 -55.66796875 36.14453125 C-56.13324131 26.59093464 -53.16263349 16.64148637 -46.9609375 9.31640625 C-46.42855469 8.754375 -45.89617188 8.19234375 -45.34765625 7.61328125 C-44.84621094 7.071875 -44.34476563 6.53046875 -43.828125 5.97265625 C-32.22282916 -5.20908865 -14.20901218 -6.91934064 0 0 Z "
        fill="#fcb900" transform="translate(65.34765625,6.38671875)" />
    <path
        d="M0 0 C2.64 0 5.28 0 8 0 C8.66 1.32 9.32 2.64 10 4 C10.69867188 3.97679687 11.39734375 3.95359375 12.1171875 3.9296875 C13.48230469 3.90261719 13.48230469 3.90261719 14.875 3.875 C16.23238281 3.84019531 16.23238281 3.84019531 17.6171875 3.8046875 C20 4 20 4 22 6 C22.125 9.625 22.125 9.625 22 13 C23.32 13.33 24.64 13.66 26 14 C26 15.65 26 17.3 26 19 C26.66 19.33 27.32 19.66 28 20 C12.49 20 -3.02 20 -19 20 C-18.34 19.67 -17.68 19.34 -17 19 C-17 17.02 -17 15.04 -17 13 C-15.68 13 -14.36 13 -13 13 C-13.04125 11.88625 -13.0825 10.7725 -13.125 9.625 C-13 6 -13 6 -11 4 C-8.6171875 3.8046875 -8.6171875 3.8046875 -5.875 3.875 C-4.50988281 3.90207031 -4.50988281 3.90207031 -3.1171875 3.9296875 C-2.41851562 3.95289063 -1.71984375 3.97609375 -1 4 C-0.67 2.68 -0.34 1.36 0 0 Z "
        fill="#" transform="translate(43,44)" />
    <path
        d="M0 0 C6.6 0 13.2 0 20 0 C18 2 18 2 16.125 2.08984375 C14.70814522 1.98826776 13.29147387 1.88410005 11.875 1.77734375 C11.25625 1.85082031 10.6375 1.92429687 10 2 C9.01 3.485 9.01 3.485 8 5 C8.99 5.33 9.98 5.66 11 6 C9.35 6.33 7.7 6.66 6 7 C5.67 8.32 5.34 9.64 5 11 C13.91 11 22.82 11 32 11 C32 12.98 32 14.96 32 17 C30.68 17.33 29.36 17.66 28 18 C28.04125 19.11375 28.0825 20.2275 28.125 21.375 C28 25 28 25 26 27 C23.8359375 27.1953125 23.8359375 27.1953125 21.375 27.125 C20.55773437 27.10695313 19.74046875 27.08890625 18.8984375 27.0703125 C18.27195312 27.04710938 17.64546875 27.02390625 17 27 C17 25.68 17 24.36 17 23 C13.37 23 9.74 23 6 23 C6 24.32 6 25.64 6 27 C4.20866022 27.05391993 2.41686101 27.09275571 0.625 27.125 C-0.37273438 27.14820312 -1.37046875 27.17140625 -2.3984375 27.1953125 C-5 27 -5 27 -7 25 C-7.125 21.375 -7.125 21.375 -7 18 C-8.32 17.67 -9.64 17.34 -11 17 C-11 15.02 -11 13.04 -11 11 C-6.38 11 -1.76 11 3 11 C2.01 9.35 1.02 7.7 0 6 C0 4.02 0 2.04 0 0 Z "
        fill="#" transform="translate(37,16)" />
    <path
        d="M0 0 C6.6 0 13.2 0 20 0 C18 2 18 2 16.125 2.08984375 C14.70814522 1.98826776 13.29147387 1.88410005 11.875 1.77734375 C11.25625 1.85082031 10.6375 1.92429687 10 2 C9.01 3.485 9.01 3.485 8 5 C8.99 5.33 9.98 5.66 11 6 C9.35 6.33 7.7 6.66 6 7 C5.67 8.32 5.34 9.64 5 11 C13.58 11 22.16 11 31 11 C31 11.33 31 11.66 31 12 C20.44 12 9.88 12 -1 12 C-1.33 12.99 -1.66 13.98 -2 15 C0.97 15.33 3.94 15.66 7 16 C7.33 15.01 7.66 14.02 8 13 C10.31 13 12.62 13 15 13 C14.67 14.98 14.34 16.96 14 19 C11.69 19.33 9.38 19.66 7 20 C7 19.34 7 18.68 7 18 C2.71 18 -1.58 18 -6 18 C-5.34 20.31 -4.68 22.62 -4 25 C-1.36 25.33 1.28 25.66 4 26 C4.33 24.68 4.66 23.36 5 22 C8.96 22 12.92 22 17 22 C17 22.33 17 22.66 17 23 C13.37 23 9.74 23 6 23 C6 24.32 6 25.64 6 27 C4.20866022 27.05391993 2.41686101 27.09275571 0.625 27.125 C-0.37273438 27.14820312 -1.37046875 27.17140625 -2.3984375 27.1953125 C-5 27 -5 27 -7 25 C-7.125 21.375 -7.125 21.375 -7 18 C-8.32 17.67 -9.64 17.34 -11 17 C-11 15.02 -11 13.04 -11 11 C-6.38 11 -1.76 11 3 11 C2.01 9.35 1.02 7.7 0 6 C0 4.02 0 2.04 0 0 Z "
        fill="#" transform="translate(37,16)" />
    <path
        d="M0 0 C2.64 0 5.28 0 8 0 C8 0.33 8 0.66 8 1 C5.69 1 3.38 1 1 1 C0.67 2.32 0.34 3.64 0 5 C-3.3 5.33 -6.6 5.66 -10 6 C-10.66 8.31 -11.32 10.62 -12 13 C-10.35 13 -8.7 13 -7 13 C-7 11.68 -7 10.36 -7 9 C0.59 9 8.18 9 16 9 C16 10.65 16 12.3 16 14 C15.505 12.02 15.505 12.02 15 10 C8.07 10 1.14 10 -6 10 C-6 11.65 -6 13.3 -6 15 C-4.02 15 -2.04 15 0 15 C0 16.32 0 17.64 0 19 C1.155 18.814375 2.31 18.62875 3.5 18.4375 C7.86389648 17.8764276 11.66733065 18.30367814 16 19 C16.495 17.515 16.495 17.515 17 16 C17.495 16.99 17.495 16.99 18 18 C20.35599235 18.46751788 20.35599235 18.46751788 23.0625 18.625 C23.98160156 18.69976562 24.90070313 18.77453125 25.84765625 18.8515625 C26.55792969 18.90054688 27.26820312 18.94953125 28 19 C28 19.33 28 19.66 28 20 C12.49 20 -3.02 20 -19 20 C-18.34 19.67 -17.68 19.34 -17 19 C-17 17.02 -17 15.04 -17 13 C-15.68 13 -14.36 13 -13 13 C-13.04125 11.88625 -13.0825 10.7725 -13.125 9.625 C-13 6 -13 6 -11 4 C-8.6171875 3.8046875 -8.6171875 3.8046875 -5.875 3.875 C-4.50988281 3.90207031 -4.50988281 3.90207031 -3.1171875 3.9296875 C-2.41851562 3.95289063 -1.71984375 3.97609375 -1 4 C-0.67 2.68 -0.34 1.36 0 0 Z "
        fill="#" transform="translate(43,44)" />
    <path
        d="M0 0 C2.31 0 4.62 0 7 0 C7.33 1.32 7.66 2.64 8 4 C8.69867188 3.97679687 9.39734375 3.95359375 10.1171875 3.9296875 C11.02726562 3.91164062 11.93734375 3.89359375 12.875 3.875 C14.23238281 3.84019531 14.23238281 3.84019531 15.6171875 3.8046875 C18 4 18 4 20 6 C20.125 9.125 20.125 9.125 20 12 C18.35 12 16.7 12 15 12 C15 10.68 15 9.36 15 8 C7.41 8 -0.18 8 -8 8 C-8 9.32 -8 10.64 -8 12 C-9.65 12 -11.3 12 -13 12 C-13.125 9.125 -13.125 9.125 -13 6 C-11 4 -11 4 -8.6171875 3.8046875 C-7.71226563 3.82789063 -6.80734375 3.85109375 -5.875 3.875 C-4.50988281 3.90207031 -4.50988281 3.90207031 -3.1171875 3.9296875 C-2.41851562 3.95289063 -1.71984375 3.97609375 -1 4 C-0.67 2.68 -0.34 1.36 0 0 Z "
        fill="#" transform="translate(44,45)" />
    <path
        d="M0 0 C0 1.98 0 3.96 0 6 C-1.32 6.33 -2.64 6.66 -4 7 C-3.95875 8.11375 -3.9175 9.2275 -3.875 10.375 C-4 14 -4 14 -6 16 C-8.1640625 16.1953125 -8.1640625 16.1953125 -10.625 16.125 C-11.44226563 16.10695313 -12.25953125 16.08890625 -13.1015625 16.0703125 C-13.72804688 16.04710938 -14.35453125 16.02390625 -15 16 C-14.67 14.68 -14.34 13.36 -14 12 C-14 12.99 -14 13.98 -14 15 C-10.535 14.505 -10.535 14.505 -7 14 C-6.34 11.69 -5.68 9.38 -5 7 C-8.96 7 -12.92 7 -17 7 C-17 7.66 -17 8.32 -17 9 C-19.31 9 -21.62 9 -24 9 C-22.125 7.9375 -22.125 7.9375 -20 7 C-19.34 7.33 -18.68 7.66 -18 8 C-18 6.35 -18 4.7 -18 3 C-19.98 3 -21.96 3 -24 3 C-24.33 3.66 -24.66 4.32 -25 5 C-28.3 5 -31.6 5 -35 5 C-34.34 3.68 -33.68 2.36 -33 1 C-28.46102507 0.8573866 -23.92204387 0.71497518 -19.38305664 0.57275391 C-17.83780749 0.52430738 -16.29256008 0.4758049 -14.74731445 0.42724609 C-12.53076627 0.35760142 -10.31421193 0.28815563 -8.09765625 0.21875 C-7.4028566 0.19687622 -6.70805695 0.17500244 -5.99220276 0.15246582 C-1.11387171 0 -1.11387171 0 0 0 Z "
        fill="#" transform="translate(69,27)" />
    <path
        d="M0 0 C0.33 0 0.66 0 1 0 C0.67 2.97 0.34 5.94 0 9 C-0.66 9 -1.32 9 -2 9 C-2 9.66 -2 10.32 -2 11 C-6.29 11 -10.58 11 -15 11 C-15 10.01 -15 9.02 -15 8 C-15.66 7.34 -16.32 6.68 -17 6 C-15.824375 5.87625 -15.824375 5.87625 -14.625 5.75 C-11.84757889 5.28770472 -11.84757889 5.28770472 -10.8359375 2.953125 C-10.56007813 2.30859375 -10.28421875 1.6640625 -10 1 C-9.36191406 1.01160156 -8.72382812 1.02320312 -8.06640625 1.03515625 C-7.24011719 1.04417969 -6.41382813 1.05320312 -5.5625 1.0625 C-4.32693359 1.07990234 -4.32693359 1.07990234 -3.06640625 1.09765625 C-1.00836062 1.23267348 -1.00836062 1.23267348 0 0 Z "
        fill="#" transform="translate(57,16)" />
    <path
        d="M0 0 C6.6 0 13.2 0 20 0 C18 2 18 2 16.125 2.08984375 C14.70814522 1.98826776 13.29147387 1.88410005 11.875 1.77734375 C11.25625 1.85082031 10.6375 1.92429687 10 2 C9.01 3.485 9.01 3.485 8 5 C8.99 5.33 9.98 5.66 11 6 C9.35 6.33 7.7 6.66 6 7 C5.67 8.32 5.34 9.64 5 11 C13.58 11 22.16 11 31 11 C31 11.33 31 11.66 31 12 C26.44703108 12.16889799 21.89386731 12.329307 17.34033203 12.48217773 C15.79435369 12.53523708 14.24845031 12.59053336 12.70263672 12.64819336 C10.46858892 12.73112283 8.23438675 12.80575074 6 12.87890625 C4.97918335 12.91945885 4.97918335 12.91945885 3.93774414 12.96083069 C-0.83392496 13.10610509 -5.29221768 12.68272039 -10 12 C-10 11.67 -10 11.34 -10 11 C-5.71 11 -1.42 11 3 11 C2.01 9.35 1.02 7.7 0 6 C0 4.02 0 2.04 0 0 Z "
        fill="#" transform="translate(37,16)" />
    <path
        d="M0 0 C3.96 0 7.92 0 12 0 C12 1.98 12 3.96 12 6 C10 8 10 8 6.5625 8.4375 C3 8 3 8 1.0625 5.6875 C0 3 0 3 0 0 Z "
        fill="#" transform="translate(52,34)" />
    <path
        d="M0 0 C8.25 0 16.5 0 25 0 C24.34 1.32 23.68 2.64 23 4 C20.69 4 18.38 4 16 4 C16 3.01 16 2.02 16 1 C13.6568787 1.25561323 11.32156597 1.59270772 9 2 C8.67 2.66 8.34 3.32 8 4 C4.7 4 1.4 4 -2 4 C-1.34 2.68 -0.68 1.36 0 0 Z "
        fill="#" transform="translate(36,28)" />
    <path d="M0 0 C6.93 0 13.86 0 21 0 C21 0.99 21 1.98 21 3 C14.07 3 7.14 3 0 3 C0 2.01 0 1.02 0 0 Z " fill="#"
        transform="translate(37,54)" />
    <path
        d="M0 0 C2.97 0.33 5.94 0.66 9 1 C9 1.99 9 2.98 9 4 C11.97 4.495 11.97 4.495 15 5 C15 5.33 15 5.66 15 6 C12.68802845 6.19390729 10.3753971 6.37996367 8.0625 6.5625 C6.77472656 6.66691406 5.48695312 6.77132812 4.16015625 6.87890625 C3.11730469 6.91886719 2.07445312 6.95882812 1 7 C0 6 0 6 -0.0625 2.9375 C-0.041875 1.968125 -0.02125 0.99875 0 0 Z "
        fill="#" transform="translate(26,27)" />
    <path
        d="M0 0 C3.63 0 7.26 0 11 0 C11.66 1.65 12.32 3.3 13 5 C9.37 5 5.74 5 2 5 C2 4.01 2 3.02 2 2 C1.34 1.34 0.68 0.68 0 0 Z "
        fill="#" transform="translate(40,22)" />
    <path
        d="M0 0 C1.98 0 3.96 0 6 0 C7.125 4.75 7.125 4.75 6 7 C7.32 7.33 8.64 7.66 10 8 C3.9453125 8.1953125 3.9453125 8.1953125 2 8 C0 6 0 6 -0.125 2.875 C-0.08375 1.92625 -0.0425 0.9775 0 0 Z "
        fill="#" transform="translate(31,34)" />
    <path
        d="M0 0 C3.96 0 7.92 0 12 0 C11.34 1.32 10.68 2.64 10 4 C7.69 4 5.38 4 3 4 C3 3.01 3 2.02 3 1 C2.01 0.67 1.02 0.34 0 0 Z "
        fill="#" transform="translate(49,28)" />
    <path d="M0 0 C2.64 0 5.28 0 8 0 C7.34 1.32 6.68 2.64 6 4 C3.36 4 0.72 4 -2 4 C-1.34 2.68 -0.68 1.36 0 0 Z "
        fill="#" transform="translate(53,59)" />
    <path d="M0 0 C2.31 0 4.62 0 7 0 C6.34 1.32 5.68 2.64 5 4 C2.69 4 0.38 4 -2 4 C-1.34 2.68 -0.68 1.36 0 0 Z "
        fill="#" transform="translate(45,59)" />
    <path d="M0 0 C2.31 0 4.62 0 7 0 C6.34 1.32 5.68 2.64 5 4 C2.69 4 0.38 4 -2 4 C-1.34 2.68 -0.68 1.36 0 0 Z "
        fill="#" transform="translate(36,59)" />
    <path d="M0 0 C1.32 0 2.64 0 4 0 C4 1.98 4 3.96 4 6 C2.68 6.33 1.36 6.66 0 7 C0 4.69 0 2.38 0 0 Z " fill="#"
        transform="translate(60,34)" />
    <path d="M0 0 C1.65 0 3.3 0 5 0 C5 1.32 5 2.64 5 4 C2.69 4 0.38 4 -2 4 C-1.34 2.68 -0.68 1.36 0 0 Z " fill="#"
        transform="translate(62,59)" />
    <path d="M0 0 C2.31 0 4.62 0 7 0 C6.34 1.32 5.68 2.64 5 4 C3.35 4 1.7 4 0 4 C0 2.68 0 1.36 0 0 Z " fill="#"
        transform="translate(28,28)" />
    <path d="M0 0 C1.98 0 3.96 0 6 0 C5.34 1.32 4.68 2.64 4 4 C2.68 4 1.36 4 0 4 C0 2.68 0 1.36 0 0 Z " fill="#"
        transform="translate(28,59)" />
    <path d="M0 0 C1.32 0 2.64 0 4 0 C4 1.32 4 2.64 4 4 C2.02 4 0.04 4 -2 4 C-1.34 2.68 -0.68 1.36 0 0 Z " fill="#"
        transform="translate(63,28)" />
    <path
        d="M0 0 C2.33294775 -0.04241723 4.66702567 -0.04092937 7 0 C8 1 8 1 8.0625 3.5625 C8.041875 4.366875 8.02125 5.17125 8 6 C7.34 6 6.68 6 6 6 C6 4.68 6 3.36 6 2 C3.03 1.505 3.03 1.505 0 1 C0 0.67 0 0.34 0 0 Z "
        fill="#" transform="translate(61,57)" />
    <path
        d="M0 0 C0.33 0 0.66 0 1 0 C1 1.98 1 3.96 1 6 C-1.60582371 6.93065133 -2.64198224 7.14917407 -5.25 6.0625 C-5.8275 5.711875 -6.405 5.36125 -7 5 C-5.02 5 -3.04 5 -1 5 C-0.67 3.35 -0.34 1.7 0 0 Z "
        fill="#" transform="translate(68,27)" />
</svg>