<?xml version="1.0" encoding="UTF-8"?>
<svg version="1.1" xmlns="http://www.w3.org/2000/svg" width="95" height="80">
    <path
        d="M0 0 C9.81976513 5.97284683 16.19567986 13.87077254 19.14453125 24.98828125 C21.10561369 35.12556895 19.38179439 45.29681928 14.109375 54.2265625 C8.25780444 62.19380388 0.39381373 68.36331592 -9.34765625 70.61328125 C-20.95793181 72.09159906 -31.19867517 70.73216999 -40.90625 63.78125 C-49.56208628 56.5751597 -54.41943838 47.96724206 -55.66796875 36.73046875 C-56.06363301 26.62784136 -53.49922631 17.18777464 -46.9609375 9.3515625 C-46.42855469 8.77792969 -45.89617188 8.20429688 -45.34765625 7.61328125 C-44.59548828 6.79923828 -44.59548828 6.79923828 -43.828125 5.96875 C-32.20735904 -5.19962605 -14.21809587 -6.9237641 0 0 Z "
        fill="#fcb900" transform="translate(65.34765625,6.38671875)" />
    <path
        d="M0 0 C0 0.66 0 1.32 0 2 C0.763125 2.020625 1.52625 2.04125 2.3125 2.0625 C3.6428125 2.5265625 3.6428125 2.5265625 5 3 C5.99 5.31 6.98 7.62 8 10 C15.59 10.33 23.18 10.66 31 11 C31 13.64 31 16.28 31 19 C30.01 19 29.02 19 28 19 C28 27.25 28 35.5 28 44 C28.99 44 29.98 44 31 44 C31 44.66 31 45.32 31 46 C15.16 46 -0.68 46 -17 46 C-17 45.34 -17 44.68 -17 44 C-16.34 44 -15.68 44 -15 44 C-15 35.75 -15 27.5 -15 19 C-15.99 19 -16.98 19 -18 19 C-18 16.36 -18 13.72 -18 11 C-17.34 11 -16.68 11 -16 11 C-16 9.68 -16 8.36 -16 7 C-15.34 7 -14.68 7 -14 7 C-13.7525 6.21625 -13.505 5.4325 -13.25 4.625 C-12 2 -12 2 -10.375 0.6875 C-6.86233535 -0.32932398 -3.65099493 -0.12169983 0 0 Z "
        fill="# A6DBEA" transform="translate(41,19)" />
    <path
        d="M0 0 C15.51 0 31.02 0 47 0 C47 1.98 47 3.96 47 6 C44.36 6 41.72 6 39 6 C39 5.01 39 4.02 39 3 C37.71677453 4.0595877 37.71677453 4.0595877 37.875 6.5 C37.71677453 8.9404123 37.71677453 8.9404123 39 10 C39 9.01 39 8.02 39 7 C39.66 7 40.32 7 41 7 C41 9.97 41 12.94 41 16 C29.78 16 18.56 16 7 16 C7 13.03 7 10.06 7 7 C4.69 6.67 2.38 6.34 0 6 C0 4.02 0 2.04 0 0 Z "
        fill="# 64C0DA" transform="translate(24,31)" />
    <path
        d="M0 0 C0 0.66 0 1.32 0 2 C0.763125 2.020625 1.52625 2.04125 2.3125 2.0625 C3.6428125 2.5265625 3.6428125 2.5265625 5 3 C5.99 5.31 6.98 7.62 8 10 C15.59 10.33 23.18 10.66 31 11 C31 13.64 31 16.28 31 19 C30.01 19 29.02 19 28 19 C28 27.58 28 36.16 28 45 C27.67 45 27.34 45 27 45 C27 36.42 27 27.84 27 19 C26.34 19 25.68 19 25 19 C25 22.3 25 25.6 25 29 C23.68 29 22.36 29 21 29 C21 34.28 21 39.56 21 45 C20.67 44.34 20.34 43.68 20 43 C19.01 42.505 19.01 42.505 18 42 C18.66 42 19.32 42 20 42 C20 41.34 20 40.68 20 40 C18.35 39.67 16.7 39.34 15 39 C15.99 38.67 16.98 38.34 18 38 C18.99 38.495 18.99 38.495 20 39 C19.505 34.545 19.505 34.545 19 30 C10.75 30 2.5 30 -6 30 C-6.33 30.66 -6.66 31.32 -7 32 C-6.34 32.33 -5.68 32.66 -5 33 C-5.66 33 -6.32 33 -7 33 C-7 34.98 -7 36.96 -7 39 C-6.01 39.33 -5.02 39.66 -4 40 C-4.495 40.495 -4.495 40.495 -5 41 C-4.01 41.33 -3.02 41.66 -2 42 C-3.98 42.495 -3.98 42.495 -6 43 C-6 43.66 -6 44.32 -6 45 C-6.66 45 -7.32 45 -8 45 C-8 39.72 -8 34.44 -8 29 C-8.99 29 -9.98 29 -11 29 C-11 25.7 -11 22.4 -11 19 C-13.31 19 -15.62 19 -18 19 C-18 16.36 -18 13.72 -18 11 C-17.34 11 -16.68 11 -16 11 C-16 9.68 -16 8.36 -16 7 C-15.34 7 -14.68 7 -14 7 C-13.7525 6.21625 -13.505 5.4325 -13.25 4.625 C-12 2 -12 2 -10.375 0.6875 C-6.86233535 -0.32932398 -3.65099493 -0.12169983 0 0 Z M-17 12 C-17 13.98 -17 15.96 -17 18 C-14.69 18.33 -12.38 18.66 -10 19 C-10 21.97 -10 24.94 -10 28 C1.22 28 12.44 28 24 28 C24 25.03 24 22.06 24 19 C23.34 19 22.68 19 22 19 C22 19.99 22 20.98 22 22 C21 21 21 21 20.875 18.5 C21 16 21 16 22 15 C22 15.99 22 16.98 22 18 C24.64 18 27.28 18 30 18 C30 16.02 30 14.04 30 12 C14.49 12 -1.02 12 -17 12 Z "
        fill="# F2F9FB" transform="translate(41,19)" />
    <path
        d="M0 0 C15.51 0 31.02 0 47 0 C47 1.98 47 3.96 47 6 C44.36 6 41.72 6 39 6 C39 5.01 39 4.02 39 3 C33.72 3 28.44 3 23 3 C23 3.99 23 4.98 23 6 C15.41 6 7.82 6 0 6 C0 4.02 0 2.04 0 0 Z "
        fill="# 55BDD2" transform="translate(24,31)" />
    <path
        d="M0 0 C0 0.66 0 1.32 0 2 C0.763125 2.020625 1.52625 2.04125 2.3125 2.0625 C5 3 5 3 6.875 6.4375 C8 10 8 10 7 12 C-0.92 12 -8.84 12 -17 12 C-17 14.31 -17 16.62 -17 19 C-17.33 19 -17.66 19 -18 19 C-18 16.36 -18 13.72 -18 11 C-17.34 11 -16.68 11 -16 11 C-16 9.68 -16 8.36 -16 7 C-15.34 7 -14.68 7 -14 7 C-13.7525 6.21625 -13.505 5.4325 -13.25 4.625 C-12 2 -12 2 -10.375 0.6875 C-6.86233535 -0.32932398 -3.65099493 -0.12169983 0 0 Z "
        fill="# DCF1F4" transform="translate(41,19)" />
    <path
        d="M0 0 C0.66 0 1.32 0 2 0 C2 8.25 2 16.5 2 25 C0.02 25 -1.96 25 -4 25 C-4 20.05 -4 15.1 -4 10 C-2.68 10 -1.36 10 0 10 C0 6.7 0 3.4 0 0 Z "
        fill="# 40ACDF" transform="translate(66,38)" />
    <path
        d="M0 0 C0.66 0 1.32 0 2 0 C2 3.3 2 6.6 2 10 C2.99 10 3.98 10 5 10 C5 14.95 5 19.9 5 25 C3.35 25 1.7 25 0 25 C0 16.75 0 8.5 0 0 Z "
        fill="# 57C1CA" transform="translate(28,38)" />
    <path d="M0 0 C0 0.33 0 0.66 0 1 C-8.58 1 -17.16 1 -26 1 C-16.74331507 -5.9425137 -9.94231879 -4.4013427 0 0 Z "
        fill="# 48B5D4" transform="translate(61,62)" />
    <path d="M0 0 C4.95 0.33 9.9 0.66 15 1 C15 2.65 15 4.3 15 6 C10.05 6.33 5.1 6.66 0 7 C0 4.69 0 2.38 0 0 Z "
        fill="# 73C4E2" transform="translate(47,34)" />
    <path
        d="M0 0 C0.66 0 1.32 0 2 0 C2 8.25 2 16.5 2 25 C4.31 25.33 6.62 25.66 9 26 C9 26.33 9 26.66 9 27 C5.37 27 1.74 27 -2 27 C-2 26.34 -2 25.68 -2 25 C-1.34 25 -0.68 25 0 25 C0 16.75 0 8.5 0 0 Z "
        fill="# B6E4E7" transform="translate(26,38)" />
    <path
        d="M0 0 C3.63 0.33 7.26 0.66 11 1 C11 1.99 11 2.98 11 4 C11.99 4.33 12.98 4.66 14 5 C14 6.32 14 7.64 14 9 C13.01 9 12.02 9 11 9 C10.79375 8.360625 10.5875 7.72125 10.375 7.0625 C9.11257974 4.69289473 9.11257974 4.69289473 6.0625 4.125 C2.82462068 3.69212888 2.82462068 3.69212888 0 6 C-0.33 6.99 -0.66 7.98 -1 9 C-2.32 8.67 -3.64 8.34 -5 8 C-4.34 8 -3.68 8 -3 8 C-3 6.68 -3 5.36 -3 4 C-2.34 4 -1.68 4 -1 4 C-0.67 2.68 -0.34 1.36 0 0 Z "
        fill="# 5DC2CF" transform="translate(32,21)" />
    <path
        d="M0 0 C7.59 0 15.18 0 23 0 C20.12868838 2.87131162 16.88620744 3.95110129 13 5 C8.49929751 4.77496488 4.17231797 2.62649684 0 1 C0 0.67 0 0.34 0 0 Z "
        fill="# 49B6D4" transform="translate(36,48)" />
    <path
        d="M0 0 C4.29 0 8.58 0 13 0 C13 1.65 13 3.3 13 5 C10.36 5 7.72 5 5 5 C5 3.68 5 2.36 5 1 C3.35 1 1.7 1 0 1 C0 0.67 0 0.34 0 0 Z "
        fill="# 38A8DE" transform="translate(58,32)" />
    <path
        d="M0 0 C0.33 0 0.66 0 1 0 C1 2.64 1 5.28 1 8 C-3.95 8 -8.9 8 -14 8 C-14 7.67 -14 7.34 -14 7 C-9.71 7 -5.42 7 -1 7 C-1 6.34 -1 5.68 -1 5 C-5.29 5 -9.58 5 -14 5 C-14 4.67 -14 4.34 -14 4 C-7.565 3.505 -7.565 3.505 -1 3 C-0.67 2.01 -0.34 1.02 0 0 Z "
        fill="# 3CADD9" transform="translate(63,38)" />
    <path
        d="M0 0 C2.05078125 0.03255208 4.1015625 0.06510417 6.15234375 0.09765625 C6.15234375 0.75765625 6.15234375 1.41765625 6.15234375 2.09765625 C6.93609375 2.15953125 7.71984375 2.22140625 8.52734375 2.28515625 C9.39359375 2.55328125 10.25984375 2.82140625 11.15234375 3.09765625 C12.46484375 5.66015625 12.46484375 5.66015625 13.15234375 8.09765625 C12.16234375 8.75765625 11.17234375 9.41765625 10.15234375 10.09765625 C10.15234375 9.10765625 10.15234375 8.11765625 10.15234375 7.09765625 C9.49234375 6.76765625 8.83234375 6.43765625 8.15234375 6.09765625 C8.15234375 5.10765625 8.15234375 4.11765625 8.15234375 3.09765625 C7.21261719 3.13246094 7.21261719 3.13246094 6.25390625 3.16796875 C5.02800781 3.19503906 5.02800781 3.19503906 3.77734375 3.22265625 C2.96523438 3.24585938 2.153125 3.2690625 1.31640625 3.29296875 C-0.84765625 3.09765625 -0.84765625 3.09765625 -2.84765625 1.09765625 C-1.84765625 0.09765625 -1.84765625 0.09765625 0 0 Z "
        fill="# DAF0F5" transform="translate(34.84765625,18.90234375)" />
    <path
        d="M0 0 C3.3 0 6.6 0 10 0 C9.01 0.495 9.01 0.495 8 1 C8 2.32 8 3.64 8 5 C7.34 5 6.68 5 6 5 C6 3.68 6 2.36 6 1 C5.34 1 4.68 1 4 1 C4 2.98 4 4.96 4 7 C3.34 7 2.68 7 2 7 C2 6.34 2 5.68 2 5 C1.34 5 0.68 5 0 5 C0 3.35 0 1.7 0 0 Z "
        fill="# 7ECED9" transform="translate(31,38)" />
    <path
        d="M0 0 C1.98 0 3.96 0 6 0 C6.66 1.32 7.32 2.64 8 4 C4.66666667 4 1.33333333 4 -2 4 C-1.34 2.68 -0.68 1.36 0 0 Z "
        fill="# 70C8D6" transform="translate(34,26)" />
    <path d="M0 0 C0 1.98 0 3.96 0 6 C-2.31 5.34 -4.62 4.68 -7 4 C-5.68623885 1.3724777 -3.03378869 0 0 0 Z "
        fill="# 44B0DB" transform="translate(61,52)" />
    <path
        d="M0 0 C0.66 0 1.32 0 2 0 C2 1.32 2 2.64 2 4 C2.66 4.33 3.32 4.66 4 5 C3.34 5 2.68 5 2 5 C2 5.66 2 6.32 2 7 C0.02 7 -1.96 7 -4 7 C-4 6.01 -4 5.02 -4 4 C-3.34 4 -2.68 4 -2 4 C-2 4.66 -2 5.32 -2 6 C-1.34 6 -0.68 6 0 6 C0 4.02 0 2.04 0 0 Z "
        fill="# 4FBCCC" transform="translate(35,39)" />
    <path d="M0 0 C2.97 0.495 2.97 0.495 6 1 C6 1.66 6 2.32 6 3 C4.02 3.66 2.04 4.32 0 5 C0 3.35 0 1.7 0 0 Z "
        fill="# 54BECF" transform="translate(35,53)" />
    <path
        d="M0 0 C0.66 0 1.32 0 2 0 C2 0.66 2 1.32 2 2 C3.32 2.33 4.64 2.66 6 3 C6 4.32 6 5.64 6 7 C5.01 7 4.02 7 3 7 C0 2.77777778 0 2.77777778 0 0 Z "
        fill="# 4CB8D1" transform="translate(40,23)" />
</svg>