<?xml version="1.0" encoding="UTF-8"?>
<svg version="1.1" xmlns="http://www.w3.org/2000/svg" width="95" height="80">
    <path
        d="M0 0 C9.81976513 5.97284683 16.19567986 13.87077254 19.14453125 24.98828125 C21.10561369 35.12556895 19.38179439 45.29681928 14.109375 54.2265625 C8.25780444 62.19380388 0.39381373 68.36331592 -9.34765625 70.61328125 C-21.12913724 72.11339838 -31.28862852 70.64977857 -41.12890625 63.62890625 C-49.86673344 56.38164958 -54.47041399 47.31822369 -55.6015625 36.09375 C-56.03859013 26.23948192 -53.32163192 16.97492579 -46.9609375 9.3515625 C-46.42855469 8.77792969 -45.89617188 8.20429688 -45.34765625 7.61328125 C-44.59548828 6.79923828 -44.59548828 6.79923828 -43.828125 5.96875 C-32.20735904 -5.19962605 -14.21809587 -6.9237641 0 0 Z "
        fill="#fcb900" transform="translate(65.34765625,6.38671875)" />
    <path
        d="M0 0 C1.31097656 0.29197266 1.31097656 0.29197266 2.6484375 0.58984375 C3.62683594 0.82380859 3.62683594 0.82380859 4.625 1.0625 C4.295 1.7225 3.965 2.3825 3.625 3.0625 C1.15 2.0725 1.15 2.0725 -1.375 1.0625 C-1.37177734 1.63242676 -1.36855469 2.20235352 -1.36523438 2.78955078 C-1.61976895 8.55139711 -2.84441025 11.38938377 -7.03515625 15.328125 C-7.94587891 16.12476563 -7.94587891 16.12476563 -8.875 16.9375 C-10.0768696 18.03474826 -11.27496852 19.13614497 -12.46875 20.2421875 C-13.00177734 20.71382324 -13.53480469 21.18545898 -14.08398438 21.67138672 C-15.63349335 23.1487376 -15.63349335 23.1487376 -16.375 26.0625 C-17.344375 26.26875 -18.31375 26.475 -19.3125 26.6875 C-24.31238136 27.87548834 -27.42265965 31.41042033 -31.04296875 34.87109375 C-36.56751337 40.0625 -36.56751337 40.0625 -39.375 40.0625 C-39.375 40.7225 -39.375 41.3825 -39.375 42.0625 C-26.835 42.0625 -14.295 42.0625 -1.375 42.0625 C-1.375 42.3925 -1.375 42.7225 -1.375 43.0625 C-16.885 43.0625 -32.395 43.0625 -48.375 43.0625 C-47.055 41.7425 -45.735 40.4225 -44.375 39.0625 C-43.39113565 37.7901728 -42.43184682 36.49840315 -41.5 35.1875 C-39.51665379 32.47743152 -37.48295346 30.07758235 -35.0625 27.75 C-32.20263643 25.29076527 -32.20263643 25.29076527 -31.375 22.0625 C-30.715 21.7325 -30.055 21.4025 -29.375 21.0625 C-29.601875 20.464375 -29.82875 19.86625 -30.0625 19.25 C-30.375 17.0625 -30.375 17.0625 -29.25 15.5 C-27.375 14.0625 -27.375 14.0625 -25.09765625 12.82421875 C-21.34819906 10.39809939 -18.53219444 7.21191036 -15.56835938 3.9140625 C-10.76928761 -1.15048984 -6.57424172 -1.51029877 0 0 Z "
        fill="# D7EEF6" transform="translate(70.375,18.9375)" />
    <path
        d="M0 0 C3.7952131 1.49097658 5.61042731 3.75700849 8 7 C5.03 9.97 2.06 12.94 -1 16 C-1.66 15.67 -2.32 15.34 -3 15 C-3 13.35 -3 11.7 -3 10 C-4.65 10 -6.3 10 -8 10 C-6.34908222 5.70761377 -3.26245434 3.1206085 0 0 Z "
        fill="# 47B2D8" transform="translate(54,26)" />
    <path
        d="M0 0 C0.66 0.33 1.32 0.66 2 1 C1.50628906 1.48210938 1.01257812 1.96421875 0.50390625 2.4609375 C-0.45708984 3.40839844 -0.45708984 3.40839844 -1.4375 4.375 C-2.07558594 5.00148438 -2.71367188 5.62796875 -3.37109375 6.2734375 C-5.07882176 7.91723061 -5.07882176 7.91723061 -6 10 C-4.35 10.33 -2.7 10.66 -1 11 C-1.99 12.485 -1.99 12.485 -3 14 C-2.505 14.45375 -2.01 14.9075 -1.5 15.375 C0 17 0 17 0 19 C-3.21043882 17.61811547 -5.04936365 16.07578097 -7.25 13.375 C-7.77078125 12.74335937 -8.2915625 12.11171875 -8.828125 11.4609375 C-9.21484375 10.97882812 -9.6015625 10.49671875 -10 10 C-9.01 9.34 -8.02 8.68 -7 8 C-7.66 7.67 -8.32 7.34 -9 7 C-8.2575 6.5875 -7.515 6.175 -6.75 5.75 C-4.09828315 4.06254382 -2.13325986 2.29127911 0 0 Z "
        fill="# BDE4EF" transform="translate(52,26)" />
    <path
        d="M0 0 C0.99 0.66 1.98 1.32 3 2 C1.34908222 6.29238623 -1.73754566 8.8793915 -5 12 C-6.32 11.34 -7.64 10.68 -9 10 C-8.06409496 8.8944811 -7.12620142 7.79064547 -6.1875 6.6875 C-5.66542969 6.07261719 -5.14335938 5.45773438 -4.60546875 4.82421875 C-3.12827531 3.14575321 -1.59960869 1.56117966 0 0 Z "
        fill="# 58BFD0" transform="translate(40,44)" />
    <path
        d="M0 0 C0 0.66 0 1.32 0 2 C12.54 2 25.08 2 38 2 C38 2.33 38 2.66 38 3 C22.49 3 6.98 3 -9 3 C-4.5 -0.375 -4.5 -0.375 0 0 Z "
        fill="# F9FCFD" transform="translate(31,59)" />
    <path
        d="M0 0 C1.4540625 0.0309375 1.4540625 0.0309375 2.9375 0.0625 C2.73125 0.68125 2.525 1.3 2.3125 1.9375 C2.18875 2.63875 2.065 3.34 1.9375 4.0625 C2.5975 4.7225 3.2575 5.3825 3.9375 6.0625 C3.6875 8.125 3.6875 8.125 2.9375 10.0625 C1.9475 10.5575 1.9475 10.5575 0.9375 11.0625 C0.9375 9.4125 0.9375 7.7625 0.9375 6.0625 C0.2775 7.7125 -0.3825 9.3625 -1.0625 11.0625 C-1.7225 11.0625 -2.3825 11.0625 -3.0625 11.0625 C-3.25656478 9.41742782 -3.44257935 7.77140406 -3.625 6.125 C-3.72941406 5.20847656 -3.83382813 4.29195312 -3.94140625 3.34765625 C-3.98136719 2.59355469 -4.02132813 1.83945312 -4.0625 1.0625 C-3.0625 0.0625 -3.0625 0.0625 0 0 Z "
        fill="# BAE6E7" transform="translate(24.0625,42.9375)" />
    <path
        d="M0 0 C2.71928517 0.37507382 3.84218661 0.84218661 5.8125 2.8125 C7 5 7 5 6 9 C3.69 7.02 1.38 5.04 -1 3 C-0.67 2.01 -0.34 1.02 0 0 Z "
        fill="# 4AB1DF" transform="translate(60,20)" />
    <path
        d="M0 0 C1.65 1.65 3.3 3.3 5 5 C2.4345406 7.5654594 0.52313332 7.54046087 -3 8 C-3.33 7.34 -3.66 6.68 -4 6 C-2.68 4.02 -1.36 2.04 0 0 Z "
        fill="# B3E3E7" transform="translate(30,52)" />
    <path
        d="M0 0 C1.13199353 0.9080162 2.25532363 1.82683826 3.375 2.75 C4.00148438 3.26046875 4.62796875 3.7709375 5.2734375 4.296875 C7.08312318 6.08199481 8.00117455 7.67949644 9 10 C5.78956118 8.61811547 3.95063635 7.07578097 1.75 4.375 C1.22921875 3.74335937 0.7084375 3.11171875 0.171875 2.4609375 C-0.21484375 1.97882812 -0.6015625 1.49671875 -1 1 C-0.67 0.67 -0.34 0.34 0 0 Z "
        fill="# 65C1DA" transform="translate(43,35)" />
    <path
        d="M0 0 C3.36179774 1.44077046 5.59156268 3.24750021 8 6 C8 6.66 8 7.32 8 8 C4.63820226 6.55922954 2.40843732 4.75249979 0 2 C0 1.34 0 0.68 0 0 Z "
        fill="# 4CB2DD" transform="translate(56,23)" />
    <path
        d="M0 0 C1.32 0.99 2.64 1.98 4 3 C3.67 3.99 3.34 4.98 3 6 C1.0625 5.1875 1.0625 5.1875 -1 4 C-1.33 3.01 -1.66 2.02 -2 1 C-1.34 0.67 -0.68 0.34 0 0 Z "
        fill="# 54BBD4" transform="translate(43,40)" />
</svg>