<?xml version="1.0" encoding="UTF-8"?>
<svg version="1.1" xmlns="http://www.w3.org/2000/svg" width="88" height="80">
    <path d="M0 0 C29.04 0 58.08 0 88 0 C88 26.4 88 52.8 88 80 C58.96 80 29.92 80 0 80 C0 53.6 0 27.2 0 0 Z "
        fill="#FBFDFE" transform="translate(0,0)" />
    <path
        d="M0 0 C29.04 0 58.08 0 88 0 C88 26.4 88 52.8 88 80 C58.96 80 29.92 80 0 80 C0 53.6 0 27.2 0 0 Z M33 9 C30.54074338 12.65068642 28.49394716 16.48638013 26.4375 20.375 C25.22341758 22.607894 24.0072106 24.83963392 22.7890625 27.0703125 C21.8594873 28.78202637 21.8594873 28.78202637 20.91113281 30.52832031 C17.81082313 36.16020632 14.56613078 41.70570026 11.3125 47.25 C10.72460693 48.25466309 10.13671387 49.25932617 9.53100586 50.29443359 C5.17201614 57.7336229 5.17201614 57.7336229 3.34838867 60.55761719 C1.44330357 64.00836341 1.32263756 67.1963494 2 71 C4.09083622 75.032327 5.74955306 77.39807621 10 79 C13.07004649 79.31659251 13.07004649 79.31659251 16.50927734 79.29052734 C17.15371292 79.29724457 17.7981485 79.30396179 18.46211243 79.31088257 C20.58679981 79.32983818 22.71117088 79.33378549 24.8359375 79.3359375 C26.31800464 79.34236729 27.80007052 79.34909578 29.28213501 79.35610962 C32.38733868 79.36807637 35.49243115 79.37179109 38.59765625 79.37060547 C42.56783773 79.37040234 46.53730287 79.39769958 50.50731468 79.43214989 C53.56834153 79.45443774 56.62919651 79.45844244 59.69029617 79.45738602 C61.15347384 79.45973933 62.61665644 79.46854776 64.07975388 79.48405075 C66.13098391 79.50375018 68.18067635 79.49785946 70.23193359 79.48583984 C71.39679291 79.48868988 72.56165222 79.49153992 73.7618103 79.49447632 C78.62821619 78.751369 81.76248836 76.43711029 84.9375 72.75 C86.38701946 68.99830258 85.91439628 65.82360069 85 62 C83.71497968 59.37855854 82.4334428 57.06637682 80.875 54.625 C79.96681332 53.14441538 79.06070494 51.6625547 78.15625 50.1796875 C77.65609375 49.3659668 77.1559375 48.55224609 76.640625 47.71386719 C73.45724222 42.4480215 70.43280136 37.08936235 67.375 31.75 C65.47580151 28.45829217 63.57287816 25.16877681 61.66796875 21.88037109 C60.65255146 20.12687384 59.63902442 18.37227786 58.62890625 16.61572266 C57.55651546 14.75705846 56.46988935 12.90796697 55.375 11.0625 C54.82585938 10.12535156 54.27671875 9.18820312 53.7109375 8.22265625 C50.90159659 4.57307868 48.12199441 3.18699907 43.625 2.4375 C38.66108997 3.2077619 36.34038673 5.33169804 33 9 Z "
        fill="#FEFEFE" transform="translate(0,0)" />
    <path
        d="M0 0 C4.65272947 2.57394671 7.04608472 5.04097814 9.59375 9.671875 C10.22514893 10.80028809 10.85654785 11.92870117 11.50708008 13.09130859 C12.17152716 14.31079589 12.83583063 15.53036144 13.5 16.75 C14.19591486 18.00300302 14.89344599 19.25510963 15.5925293 20.50634766 C16.66557577 22.42731242 17.73758368 24.34877265 18.80436707 26.27322388 C22.92996313 33.71105217 27.25280018 41.03062058 31.5703125 48.35839844 C39.01663506 61.05180151 39.01663506 61.05180151 38.9375 65.5625 C37.75733903 69.8897569 36.07734385 72.65677192 32.27011108 75.11856079 C29.2601835 76.28725611 26.71924228 76.26936891 23.49072266 76.29052734 C22.52406929 76.30060318 22.52406929 76.30060318 21.53788757 76.31088257 C19.41320019 76.32983818 17.28882912 76.33378549 15.1640625 76.3359375 C13.68199536 76.34236729 12.19992948 76.34909578 10.71786499 76.35610962 C7.61266132 76.36807637 4.50756885 76.37179109 1.40234375 76.37060547 C-2.56783773 76.37040234 -6.53730287 76.39769958 -10.50731468 76.43214989 C-13.56834153 76.45443774 -16.62919651 76.45844244 -19.69029617 76.45738602 C-21.15347384 76.45973933 -22.61665644 76.46854776 -24.07975388 76.48405075 C-26.13098391 76.50375018 -28.18067635 76.49785946 -30.23193359 76.48583984 C-31.97922256 76.4901149 -31.97922256 76.4901149 -33.7618103 76.49447632 C-38.24475211 75.80992453 -41.55954168 73.83331059 -44.375 70.25 C-46.10571381 64.0194303 -45.31398374 60.02226453 -42.24609375 54.4453125 C-40.99395539 52.32815817 -39.72327487 50.22189674 -38.4375 48.125 C-37.41344609 46.40888802 -36.38942437 44.69275583 -35.36732483 42.97547913 C-34.65999243 41.78961352 -33.95027615 40.6051668 -33.23826599 39.42210388 C-30.72034871 35.23672463 -28.27789368 31.01405721 -25.875 26.76171875 C-25.20779007 25.58510873 -24.54055409 24.40851348 -23.87329102 23.23193359 C-22.61203276 21.0040129 -21.35451742 18.77396782 -20.10131836 16.54150391 C-10.17080187 -0.84756682 -10.17080187 -0.84756682 0 0 Z M-8.44140625 6.02734375 C-11.36791457 9.42745495 -13.35774624 12.86079176 -15.4375 16.8125 C-16.3034773 18.41412133 -17.17211959 20.01430367 -18.04296875 21.61328125 C-18.51138184 22.4738916 -18.97979492 23.33450195 -19.46240234 24.22119141 C-22.30737194 29.36273538 -25.28186037 34.42888765 -28.25 39.5 C-28.82806396 40.4897583 -29.40612793 41.4795166 -30.00170898 42.49926758 C-33.22393253 48.0046508 -36.49262639 53.47380228 -39.85766602 58.89331055 C-41.46547933 61.8584358 -41.83904547 63.72009498 -41 67 C-38.46208944 70.11796148 -36.95635648 71.80206998 -32.96472168 72.62818909 C-31.27192078 72.62963173 -31.27192078 72.62963173 -29.54492188 72.63110352 C-28.26008911 72.64363663 -26.97525635 72.65616974 -25.65148926 72.66908264 C-24.2572325 72.65681393 -22.86298547 72.64339385 -21.46875 72.62890625 C-20.03055644 72.62973549 -18.59236299 72.63219697 -17.1541748 72.63621521 C-14.14464685 72.6390693 -11.13586473 72.62441183 -8.12646484 72.59692383 C-4.27603312 72.56284021 -0.42693446 72.5688621 3.4235611 72.5875864 C6.39197833 72.59817403 9.36008735 72.58920289 12.32847595 72.57420158 C13.74778833 72.56903215 15.16713306 72.56948654 16.58644104 72.57574654 C18.57264383 72.58121892 20.55886241 72.55792664 22.54492188 72.53344727 C23.67345581 72.52724869 24.80198975 72.52105011 25.96472168 72.5146637 C29.68270241 71.88424055 31.3635142 70.65661925 34 68 C35.61902332 60.93269034 31.36457791 55.48106635 27.875 49.5625 C27.24988525 48.47662598 26.62477051 47.39075195 25.98071289 46.27197266 C24.66567069 43.99296065 23.34366903 41.71795185 22.01513672 39.44677734 C20.03703744 36.06335044 18.080406 32.66835598 16.12890625 29.26953125 C14.89945807 27.13743201 13.6690254 25.00590009 12.4375 22.875 C11.86692871 21.88701416 11.29635742 20.89902832 10.70849609 19.88110352 C5.70656504 10.06663956 5.70656504 10.06663956 -2.5 3.75 C-6.07763984 3.66406988 -6.07763984 3.66406988 -8.44140625 6.02734375 Z "
        fill="#fcb900" transform="translate(47,3)" />
    <path
        d="M0 0 C1.23556641 0.01740234 1.23556641 0.01740234 2.49609375 0.03515625 C3.32238281 0.04417969 4.14867187 0.05320312 5 0.0625 C5.63808594 0.07410156 6.27617188 0.08570312 6.93359375 0.09765625 C5.4399989 4.9405244 3.48325808 9.41116521 1.30859375 13.97265625 C0.98375 14.66101562 0.65890625 15.349375 0.32421875 16.05859375 C-0.46964097 17.73970844 -1.26760183 19.41888546 -2.06640625 21.09765625 C1.89359375 19.44765625 5.85359375 17.79765625 9.93359375 16.09765625 C8.58952822 23.71402756 6.51304403 30.81008314 3.93359375 38.09765625 C4.59359375 38.09765625 5.25359375 38.09765625 5.93359375 38.09765625 C4.53113399 42.42190718 3.83629641 43.17062925 -0.06640625 46.09765625 C-0.39640625 42.79765625 -0.72640625 39.49765625 -1.06640625 36.09765625 C-0.07640625 36.42765625 0.91359375 36.75765625 1.93359375 37.09765625 C1.93359375 33.46765625 1.93359375 29.83765625 1.93359375 26.09765625 C0.77730469 26.53078125 0.77730469 26.53078125 -0.40234375 26.97265625 C-1.40523437 27.34390625 -2.408125 27.71515625 -3.44140625 28.09765625 C-4.43914063 28.46890625 -5.436875 28.84015625 -6.46484375 29.22265625 C-9.06640625 30.09765625 -9.06640625 30.09765625 -11.06640625 30.09765625 C-10.41992088 23.68667634 -8.55560777 17.83405851 -6.56640625 11.72265625 C-6.24542969 10.71332031 -5.92445312 9.70398438 -5.59375 8.6640625 C-2.85011721 0.13469363 -2.85011721 0.13469363 0 0 Z "
        fill="#fcb900" transform="translate(43.06640625,22.90234375)" />
    <path
        d="M0 0 C0.66 0 1.32 0 2 0 C2.07347656 1.28197266 2.07347656 1.28197266 2.1484375 2.58984375 C2.22320312 3.69457031 2.29796875 4.79929687 2.375 5.9375 C2.44460937 7.03964844 2.51421875 8.14179687 2.5859375 9.27734375 C2.72257812 10.17582031 2.85921875 11.07429688 3 12 C3.66 12.33 4.32 12.66 5 13 C3.59754024 17.32425093 2.90270266 18.072973 -1 21 C-1.33 17.7 -1.66 14.4 -2 11 C-1.01 11.33 -0.02 11.66 1 12 C0.67 8.04 0.34 4.08 0 0 Z "
        fill="#fcb900" transform="translate(44,48)" />
</svg>